<?xml version="1.0" encoding="UTF-8" standalone="no"?>
<!-- Created with Inkscape (http://www.inkscape.org/) -->

<svg
   xmlns:dc="http://purl.org/dc/elements/1.1/"
   xmlns:cc="http://creativecommons.org/ns#"
   xmlns:rdf="http://www.w3.org/1999/02/22-rdf-syntax-ns#"
   xmlns:svg="http://www.w3.org/2000/svg"
   xmlns="http://www.w3.org/2000/svg"
   xmlns:sodipodi="http://sodipodi.sourceforge.net/DTD/sodipodi-0.dtd"
   xmlns:inkscape="http://www.inkscape.org/namespaces/inkscape"
   id="svg4042"
   version="1.1"
   inkscape:version="0.48.2 r9819"
   width="1290.252"
   height="329.47153"
   xml:space="preserve"
   sodipodi:docname="fig-projection-makeup.pdf"><metadata
     id="metadata4048"><rdf:RDF><cc:Work
         rdf:about=""><dc:format>image/svg+xml</dc:format><dc:type
           rdf:resource="http://purl.org/dc/dcmitype/StillImage" /><dc:title></dc:title></cc:Work></rdf:RDF></metadata><defs
     id="defs4046"><clipPath
       clipPathUnits="userSpaceOnUse"
       id="clipPath4060"><path
         d="m 144,231.70909 892.8,0 0,157.09091 -892.8,0 0,-157.09091 z"
         id="path4062"
         inkscape:connector-curvature="0" /></clipPath><clipPath
       clipPathUnits="userSpaceOnUse"
       id="clipPath4070"><path
         d="m 144,231.70909 892.8,0 0,157.09091 -892.8,0 0,-157.09091 z"
         id="path4072"
         inkscape:connector-curvature="0" /></clipPath><clipPath
       clipPathUnits="userSpaceOnUse"
       id="clipPath4080"><path
         d="m 144,231.70909 892.8,0 0,157.09091 -892.8,0 0,-157.09091 z"
         id="path4082"
         inkscape:connector-curvature="0" /></clipPath><clipPath
       clipPathUnits="userSpaceOnUse"
       id="clipPath4090"><path
         d="m 144,231.70909 892.8,0 0,157.09091 -892.8,0 0,-157.09091 z"
         id="path4092"
         inkscape:connector-curvature="0" /></clipPath><clipPath
       clipPathUnits="userSpaceOnUse"
       id="clipPath4100"><path
         d="m 144,231.70909 892.8,0 0,157.09091 -892.8,0 0,-157.09091 z"
         id="path4102"
         inkscape:connector-curvature="0" /></clipPath><clipPath
       clipPathUnits="userSpaceOnUse"
       id="clipPath4110"><path
         d="m 144,231.70909 892.8,0 0,157.09091 -892.8,0 0,-157.09091 z"
         id="path4112"
         inkscape:connector-curvature="0" /></clipPath><clipPath
       clipPathUnits="userSpaceOnUse"
       id="clipPath4120"><path
         d="m 144,231.70909 892.8,0 0,157.09091 -892.8,0 0,-157.09091 z"
         id="path4122"
         inkscape:connector-curvature="0" /></clipPath><clipPath
       clipPathUnits="userSpaceOnUse"
       id="clipPath4202"><path
         d="m 144,43.2 892.8,0 0,157.09091 -892.8,0 L 144,43.2 z"
         id="path4204"
         inkscape:connector-curvature="0" /></clipPath><clipPath
       clipPathUnits="userSpaceOnUse"
       id="clipPath4212"><path
         d="m 144,43.2 892.8,0 0,157.09091 -892.8,0 L 144,43.2 z"
         id="path4214"
         inkscape:connector-curvature="0" /></clipPath><clipPath
       clipPathUnits="userSpaceOnUse"
       id="clipPath4222"><path
         d="m 144,43.2 892.8,0 0,157.09091 -892.8,0 L 144,43.2 z"
         id="path4224"
         inkscape:connector-curvature="0" /></clipPath><clipPath
       clipPathUnits="userSpaceOnUse"
       id="clipPath4232"><path
         d="m 144,43.2 892.8,0 0,157.09091 -892.8,0 L 144,43.2 z"
         id="path4234"
         inkscape:connector-curvature="0" /></clipPath><clipPath
       clipPathUnits="userSpaceOnUse"
       id="clipPath4242"><path
         d="m 144,43.2 892.8,0 0,157.09091 -892.8,0 L 144,43.2 z"
         id="path4244"
         inkscape:connector-curvature="0" /></clipPath><clipPath
       clipPathUnits="userSpaceOnUse"
       id="clipPath4252"><path
         d="m 144,43.2 892.8,0 0,157.09091 -892.8,0 L 144,43.2 z"
         id="path4254"
         inkscape:connector-curvature="0" /></clipPath><clipPath
       clipPathUnits="userSpaceOnUse"
       id="clipPath4262"><path
         d="m 144,43.2 892.8,0 0,157.09091 -892.8,0 L 144,43.2 z"
         id="path4264"
         inkscape:connector-curvature="0" /></clipPath><clipPath
       clipPathUnits="userSpaceOnUse"
       id="clipPath120"><path
         inkscape:connector-curvature="0"
         d="m 90,114.57237 175.14474,0 0,346.85526 -175.14474,0 0,-346.85526 z"
         id="path122" /></clipPath><clipPath
       clipPathUnits="userSpaceOnUse"
       id="clipPath130"><path
         inkscape:connector-curvature="0"
         d="m 90,114.57237 175.14474,0 0,346.85526 -175.14474,0 0,-346.85526 z"
         id="path132" /></clipPath><clipPath
       clipPathUnits="userSpaceOnUse"
       id="clipPath140"><path
         inkscape:connector-curvature="0"
         d="m 90,114.57237 175.14474,0 0,346.85526 -175.14474,0 0,-346.85526 z"
         id="path142" /></clipPath><clipPath
       clipPathUnits="userSpaceOnUse"
       id="clipPath150"><path
         inkscape:connector-curvature="0"
         d="m 90,114.57237 175.14474,0 0,346.85526 -175.14474,0 0,-346.85526 z"
         id="path152" /></clipPath><clipPath
       clipPathUnits="userSpaceOnUse"
       id="clipPath160"><path
         inkscape:connector-curvature="0"
         d="m 90,114.57237 175.14474,0 0,346.85526 -175.14474,0 0,-346.85526 z"
         id="path162" /></clipPath><clipPath
       clipPathUnits="userSpaceOnUse"
       id="clipPath170"><path
         inkscape:connector-curvature="0"
         d="m 90,114.57237 175.14474,0 0,346.85526 -175.14474,0 0,-346.85526 z"
         id="path172" /></clipPath><clipPath
       clipPathUnits="userSpaceOnUse"
       id="clipPath180"><path
         inkscape:connector-curvature="0"
         d="m 90,114.57237 175.14474,0 0,346.85526 -175.14474,0 0,-346.85526 z"
         id="path182" /></clipPath><clipPath
       clipPathUnits="userSpaceOnUse"
       id="clipPath190"><path
         inkscape:connector-curvature="0"
         d="m 90,114.57237 175.14474,0 0,346.85526 -175.14474,0 0,-346.85526 z"
         id="path192" /></clipPath><clipPath
       clipPathUnits="userSpaceOnUse"
       id="clipPath200"><path
         inkscape:connector-curvature="0"
         d="m 90,114.57237 175.14474,0 0,346.85526 -175.14474,0 0,-346.85526 z"
         id="path202" /></clipPath><clipPath
       clipPathUnits="userSpaceOnUse"
       id="clipPath210"><path
         inkscape:connector-curvature="0"
         d="m 90,114.57237 175.14474,0 0,346.85526 -175.14474,0 0,-346.85526 z"
         id="path212" /></clipPath><clipPath
       clipPathUnits="userSpaceOnUse"
       id="clipPath220"><path
         inkscape:connector-curvature="0"
         d="m 90,114.57237 175.14474,0 0,346.85526 -175.14474,0 0,-346.85526 z"
         id="path222" /></clipPath><clipPath
       clipPathUnits="userSpaceOnUse"
       id="clipPath230"><path
         inkscape:connector-curvature="0"
         d="m 90,114.57237 175.14474,0 0,346.85526 -175.14474,0 0,-346.85526 z"
         id="path232" /></clipPath><clipPath
       clipPathUnits="userSpaceOnUse"
       id="clipPath240"><path
         inkscape:connector-curvature="0"
         d="m 90,114.57237 175.14474,0 0,346.85526 -175.14474,0 0,-346.85526 z"
         id="path242" /></clipPath><clipPath
       clipPathUnits="userSpaceOnUse"
       id="clipPath250"><path
         inkscape:connector-curvature="0"
         d="m 90,114.57237 175.14474,0 0,346.85526 -175.14474,0 0,-346.85526 z"
         id="path252" /></clipPath><clipPath
       clipPathUnits="userSpaceOnUse"
       id="clipPath260"><path
         inkscape:connector-curvature="0"
         d="m 90,114.57237 175.14474,0 0,346.85526 -175.14474,0 0,-346.85526 z"
         id="path262" /></clipPath><clipPath
       clipPathUnits="userSpaceOnUse"
       id="clipPath270"><path
         inkscape:connector-curvature="0"
         d="m 90,114.57237 175.14474,0 0,346.85526 -175.14474,0 0,-346.85526 z"
         id="path272" /></clipPath><clipPath
       clipPathUnits="userSpaceOnUse"
       id="clipPath566"><path
         inkscape:connector-curvature="0"
         d="m 301.14474,114.57237 346.85526,0 0,346.85526 -346.85526,0 0,-346.85526 z"
         id="path568" /></clipPath><clipPath
       clipPathUnits="userSpaceOnUse"
       id="clipPath576"><path
         inkscape:connector-curvature="0"
         d="m 301.14474,114.57237 346.85526,0 0,346.85526 -346.85526,0 0,-346.85526 z"
         id="path578" /></clipPath><clipPath
       clipPathUnits="userSpaceOnUse"
       id="clipPath586"><path
         inkscape:connector-curvature="0"
         d="m 301.14474,114.57237 346.85526,0 0,346.85526 -346.85526,0 0,-346.85526 z"
         id="path588" /></clipPath><clipPath
       clipPathUnits="userSpaceOnUse"
       id="clipPath596"><path
         inkscape:connector-curvature="0"
         d="m 301.14474,114.57237 346.85526,0 0,346.85526 -346.85526,0 0,-346.85526 z"
         id="path598" /></clipPath><clipPath
       clipPathUnits="userSpaceOnUse"
       id="clipPath606"><path
         inkscape:connector-curvature="0"
         d="m 301.14474,114.57237 346.85526,0 0,346.85526 -346.85526,0 0,-346.85526 z"
         id="path608" /></clipPath><clipPath
       clipPathUnits="userSpaceOnUse"
       id="clipPath616"><path
         inkscape:connector-curvature="0"
         d="m 301.14474,114.57237 346.85526,0 0,346.85526 -346.85526,0 0,-346.85526 z"
         id="path618" /></clipPath><clipPath
       clipPathUnits="userSpaceOnUse"
       id="clipPath626"><path
         inkscape:connector-curvature="0"
         d="m 301.14474,114.57237 346.85526,0 0,346.85526 -346.85526,0 0,-346.85526 z"
         id="path628" /></clipPath><clipPath
       clipPathUnits="userSpaceOnUse"
       id="clipPath636"><path
         inkscape:connector-curvature="0"
         d="m 301.14474,114.57237 346.85526,0 0,346.85526 -346.85526,0 0,-346.85526 z"
         id="path638" /></clipPath><clipPath
       clipPathUnits="userSpaceOnUse"
       id="clipPath646"><path
         inkscape:connector-curvature="0"
         d="m 301.14474,114.57237 346.85526,0 0,346.85526 -346.85526,0 0,-346.85526 z"
         id="path648" /></clipPath><clipPath
       clipPathUnits="userSpaceOnUse"
       id="clipPath656"><path
         inkscape:connector-curvature="0"
         d="m 301.14474,114.57237 346.85526,0 0,346.85526 -346.85526,0 0,-346.85526 z"
         id="path658" /></clipPath><clipPath
       clipPathUnits="userSpaceOnUse"
       id="clipPath666"><path
         inkscape:connector-curvature="0"
         d="m 301.14474,114.57237 346.85526,0 0,346.85526 -346.85526,0 0,-346.85526 z"
         id="path668" /></clipPath><clipPath
       clipPathUnits="userSpaceOnUse"
       id="clipPath676"><path
         inkscape:connector-curvature="0"
         d="m 301.14474,114.57237 346.85526,0 0,346.85526 -346.85526,0 0,-346.85526 z"
         id="path678" /></clipPath><clipPath
       clipPathUnits="userSpaceOnUse"
       id="clipPath686"><path
         inkscape:connector-curvature="0"
         d="m 301.14474,114.57237 346.85526,0 0,346.85526 -346.85526,0 0,-346.85526 z"
         id="path688" /></clipPath><clipPath
       clipPathUnits="userSpaceOnUse"
       id="clipPath696"><path
         inkscape:connector-curvature="0"
         d="m 301.14474,114.57237 346.85526,0 0,346.85526 -346.85526,0 0,-346.85526 z"
         id="path698" /></clipPath><clipPath
       clipPathUnits="userSpaceOnUse"
       id="clipPath706"><path
         inkscape:connector-curvature="0"
         d="m 301.14474,114.57237 346.85526,0 0,346.85526 -346.85526,0 0,-346.85526 z"
         id="path708" /></clipPath></defs><sodipodi:namedview
     pagecolor="#ffffff"
     bordercolor="#666666"
     borderopacity="1"
     objecttolerance="10"
     gridtolerance="10"
     guidetolerance="10"
     inkscape:pageopacity="0"
     inkscape:pageshadow="2"
     inkscape:window-width="1422"
     inkscape:window-height="899"
     id="namedview4044"
     showgrid="false"
     fit-margin-top="0"
     fit-margin-left="0"
     fit-margin-right="0"
     fit-margin-bottom="0"
     inkscape:zoom="0.90625"
     inkscape:cx="647.81308"
     inkscape:cy="153.60521"
     inkscape:window-x="0"
     inkscape:window-y="0"
     inkscape:window-maximized="0"
     inkscape:current-layer="g4050" /><g
     id="g4050"
     inkscape:groupmode="layer"
     inkscape:label="fig-projection"
     transform="matrix(1.25,0,0,-1.25,25.35732,445.86631)"><g
       id="g5916"><g
         transform="translate(-35.310345,60.027586)"
         id="g5866"><g
           id="g4056"
           transform="matrix(1,0,0,0.3,0,162.19636)"><g
             id="g4058"
             clip-path="url(#clipPath4060)"><path
               d="m 144,232.56132 0.8723,0.44963 0.8723,0.64936 0.8723,0.91811 0.8723,1.27053 0.8723,1.72048 0.87231,2.27906 0.8723,2.95219 0.8723,3.73794 0.8723,4.62375 0.8723,5.58418 1.30845,10.23891 1.30845,12.34197 1.7446,18.84111 2.61691,28.53981 1.30845,11.51245 0.8723,5.73675 0.8723,3.81496 0.43615,1.11627 0.43615,0.56527 0.43615,0.006 0.43615,-0.5529 0.43615,-1.10417 0.43615,-1.63981 0.8723,-4.78755 0.8723,-6.56886 1.30846,-12.41832 2.18075,-24.11108 2.18075,-23.18218 1.30845,-11.69071 1.30845,-9.51148 0.8723,-5.10748 0.87231,-4.17946 0.8723,-3.34023 0.8723,-2.6087 0.8723,-1.99188 0.8723,-1.48754 0.8723,-1.08687 0.8723,-0.77717 0.8723,-0.54399 1.30845,-0.51069 1.74461,-0.33569 2.18075,-0.15509 4.79765,-0.057 77.19863,-0.002 766.31637,0 0,0"
               style="fill:none;stroke:#0000ff;stroke-width:1.82574189;stroke-linecap:square;stroke-linejoin:round;stroke-miterlimit:10;stroke-opacity:1;stroke-dasharray:none"
               id="path4064"
               inkscape:connector-curvature="0" /></g></g><g
           id="g4066"
           transform="matrix(1,0,0,0.3,0,162.19636)"><g
             id="g4068"
             clip-path="url(#clipPath4070)"><path
               d="m 144,231.70909 25.73288,0.0933 2.18075,0.23053 1.30845,0.3214 1.30845,0.58644 0.8723,0.61906 0.8723,0.87775 0.87231,1.21819 0.8723,1.65442 0.8723,2.19803 0.8723,2.85579 0.8723,3.627 0.8723,4.50063 0.8723,5.45309 1.30845,10.04128 1.30845,12.16883 1.74461,18.70708 2.6169,28.69064 1.30845,11.77376 0.8723,5.97147 0.8723,4.0858 0.43615,1.26085 0.43615,0.71331 0.43615,0.15565 0.43615,-0.40425 0.43615,-0.95837 0.43615,-1.49893 0.87231,-4.52806 0.8723,-6.34984 1.30845,-12.18563 2.18075,-24.00068 2.18075,-23.35677 1.30845,-11.8726 1.30845,-9.71047 0.87231,-5.23633 0.8723,-4.29863 0.8723,-3.44619 0.8723,-2.69966 0.8723,-2.0675 0.8723,-1.54854 0.8723,-1.13474 0.8723,-0.81372 0.8723,-0.57119 1.30845,-0.53804 1.30846,-0.29284 2.18075,-0.20827 3.92535,-0.0767 29.65823,-0.006 785.50699,0 0,0"
               style="fill:none;stroke:#0000ff;stroke-width:1.82574189;stroke-linecap:square;stroke-linejoin:round;stroke-miterlimit:10;stroke-opacity:1;stroke-dasharray:none"
               id="path4074"
               inkscape:connector-curvature="0" /></g></g><g
           id="g4076"
           transform="matrix(1,0,0,0.3,0,162.19636)"><g
             id="g4078"
             clip-path="url(#clipPath4080)"><path
               d="m 144,231.70909 75.45403,0.0989 2.18075,0.24244 1.30845,0.33657 1.30846,0.61202 0.8723,0.64422 0.8723,0.91128 0.8723,1.26169 0.8723,1.70934 0.8723,2.26541 0.8723,2.93599 0.8723,3.71932 0.8723,4.60313 0.8723,5.56229 1.30846,10.20602 1.30845,12.31337 1.7446,18.81945 2.6169,28.56644 1.30845,11.55673 0.8723,5.77626 0.8723,3.86037 0.43615,1.14045 0.43616,0.58999 0.43615,0.0311 0.43615,-0.52816 0.43615,-1.07994 0.43615,-1.61644 0.8723,-4.74462 0.8723,-6.53278 1.30845,-12.3803 2.18075,-24.09393 2.18076,-23.21208 1.30845,-11.72122 1.30845,-9.54467 0.8723,-5.12888 0.8723,-4.19921 0.8723,-3.35776 0.8723,-2.62372 0.8723,-2.00434 0.8723,-1.49758 0.8723,-1.09473 0.87231,-0.78317 0.8723,-0.54845 1.30845,-0.51516 1.7446,-0.33889 2.18075,-0.15673 4.79766,-0.0577 76.32633,-0.002 687.80928,0 0,0"
               style="fill:none;stroke:#0000ff;stroke-width:1.82574189;stroke-linecap:square;stroke-linejoin:round;stroke-miterlimit:10;stroke-opacity:1;stroke-dasharray:none"
               id="path4084"
               inkscape:connector-curvature="0" /></g></g><g
           id="g4086"
           transform="matrix(1,0,0,0.3,0,162.19636)"><g
             id="g4088"
             clip-path="url(#clipPath4090)"><path
               d="m 144,231.70909 174.89634,0.11094 2.18075,0.26794 1.30845,0.36884 0.8723,0.40104 0.8723,0.58286 0.8723,0.82936 0.8723,1.15516 0.8723,1.57452 0.87231,2.0996 0.8723,2.73816 0.8723,3.4909 0.8723,4.34875 0.8723,5.2903 1.30845,9.7933 1.30845,11.94749 1.7446,18.52629 3.05306,33.17282 1.30845,11.10089 0.8723,5.37436 0.43615,1.96192 0.43615,1.43977 0.43615,0.89734 0.43615,0.34217 0.43615,-0.21786 0.43615,-0.7748 0.43615,-1.32072 0.43615,-1.84801 0.8723,-5.1679 0.8723,-6.88568 1.30846,-12.7468 4.79765,-51.17944 1.30845,-10.69605 1.30845,-8.46932 0.87231,-4.44975 0.8723,-3.58131 0.8723,-2.81623 0.8723,-2.16486 0.8723,-1.62745 0.8723,-1.19689 0.8723,-0.86138 0.8723,-0.60678 1.30845,-0.57401 1.30845,-0.31404 2.18076,-0.22477 3.92535,-0.0836 27.04133,-0.007 639.39658,0 0,0"
               style="fill:none;stroke:#0000ff;stroke-width:1.82574189;stroke-linecap:square;stroke-linejoin:round;stroke-miterlimit:10;stroke-opacity:1;stroke-dasharray:none"
               id="path4094"
               inkscape:connector-curvature="0" /></g></g><g
           id="g4096"
           transform="matrix(1,0,0,0.3,0,162.19636)"><g
             id="g4098"
             clip-path="url(#clipPath4100)"><path
               d="m 144,231.70909 373.3448,0.10781 2.18075,0.26135 1.30845,0.36053 0.8723,0.39255 0.8723,0.57119 0.8723,0.81372 0.8723,1.13474 0.87231,1.54854 0.8723,2.0675 0.8723,2.69966 0.8723,3.44619 0.8723,4.29863 0.8723,5.23633 1.30845,9.71047 1.30845,11.8726 1.7446,18.46285 3.05306,33.24599 1.30845,11.21754 0.8723,5.47623 0.8723,3.5173 0.43615,0.95837 0.43615,0.40425 0.43615,-0.15565 0.43615,-0.71331 0.43615,-1.26085 0.43615,-1.79057 0.87231,-5.06336 0.8723,-6.79911 1.30845,-12.65804 5.2338,-55.0865 1.30845,-10.04128 1.30846,-7.81825 0.8723,-4.05217 0.8723,-3.22763 0.8723,-2.51248 0.8723,-1.91223 0.8723,-1.42352 0.8723,-1.03685 0.8723,-0.73911 0.8723,-0.51576 1.30845,-0.48242 1.74461,-0.31552 2.6169,-0.15794 6.54226,-0.0414 417.39599,-4e-4 46.6681,0 0,0"
               style="fill:none;stroke:#0000ff;stroke-width:1.82574189;stroke-linecap:square;stroke-linejoin:round;stroke-miterlimit:10;stroke-opacity:1;stroke-dasharray:none"
               id="path4104"
               inkscape:connector-curvature="0" /></g></g><g
           id="g4106"
           transform="matrix(1,0,0,0.3,0,162.19636)"><g
             id="g4108"
             clip-path="url(#clipPath4110)"><path
               d="m 144,231.70909 571.79326,0.10476 2.18075,0.2549 1.30845,0.35239 1.30845,0.63853 0.8723,0.67024 0.87231,0.94583 0.8723,1.30639 0.8723,1.76561 0.8723,2.33422 0.8723,3.01757 0.8723,3.81291 0.8723,4.70658 0.8723,5.67193 1.30845,10.37016 1.30845,12.45533 2.18076,23.85042 2.18075,23.50189 1.30845,11.33241 0.8723,5.57718 0.8723,3.63229 0.43615,1.01925 0.43615,0.46624 0.43615,-0.0934 0.43615,-0.65171 0.43615,-1.20075 0.43616,-1.73283 0.8723,-4.95795 0.8723,-6.71142 1.30845,-12.56738 2.6169,-29.04021 1.7446,-18.19395 1.30845,-11.56789 1.30846,-9.37874 0.8723,-5.02212 0.8723,-4.1009 0.8723,-3.27067 0.8723,-2.5492 0.8723,-1.94259 0.8723,-1.44789 0.8723,-1.05586 0.8723,-0.75356 0.8723,-0.52648 1.30846,-0.49312 1.7446,-0.32315 2.6169,-0.16218 6.10611,-0.0425 266.05178,-5.8e-4 0,0"
               style="fill:none;stroke:#0000ff;stroke-width:1.82574189;stroke-linecap:square;stroke-linejoin:round;stroke-miterlimit:10;stroke-opacity:1;stroke-dasharray:none"
               id="path4114"
               inkscape:connector-curvature="0" /></g></g><g
           id="g4116"
           transform="matrix(1,0,0,0.3,0,162.19636)"><g
             id="g4118"
             clip-path="url(#clipPath4120)"><path
               d="m 144,231.70909 770.24172,0.10179 2.18075,0.2486 1.30845,0.3444 1.30845,0.62516 0.87231,0.65712 0.8723,0.92842 0.8723,1.28389 0.8723,1.7373 0.8723,2.29964 0.8723,2.97661 0.8723,3.76596 0.8723,4.65474 0.8723,5.61706 1.30845,10.28817 1.30846,12.38469 1.7446,18.87309 2.6169,28.49874 1.30845,11.44547 0.8723,5.6772 0.8723,3.74666 0.43615,1.07994 0.43615,0.52816 0.43616,-0.0311 0.43615,-0.58999 0.43615,-1.14045 0.43615,-1.67477 0.8723,-4.8517 0.8723,-6.62265 1.30845,-12.47479 2.18075,-24.13589 2.18075,-23.13672 1.30846,-11.64479 1.30845,-9.46171 0.8723,-5.07541 0.8723,-4.14992 0.8723,-3.31405 0.8723,-2.58628 0.8723,-1.97329 0.8723,-1.47257 0.8723,-1.07516 0.8723,-0.76825 0.87231,-0.53736 1.30845,-0.50404 1.7446,-0.33094 2.6169,-0.16653 6.10611,-0.0438 67.60332,-6e-4 0,0"
               style="fill:none;stroke:#0000ff;stroke-width:1.82574189;stroke-linecap:square;stroke-linejoin:round;stroke-miterlimit:10;stroke-opacity:1;stroke-dasharray:none"
               id="path4124"
               inkscape:connector-curvature="0" /></g></g><path
           inkscape:connector-curvature="0"
           id="path4128"
           style="fill:#000000;fill-opacity:1;fill-rule:nonzero;stroke:#000000;stroke-width:0.5;stroke-linecap:butt;stroke-linejoin:round;stroke-miterlimit:10;stroke-opacity:1;stroke-dasharray:none"
           d="m 144,227.78182 0,-4" /><text
           id="text4130"
           transform="scale(1,-1)"
           x="138.14844"
           y="-210.65681"><tspan
             id="tspan4132"
             sodipodi:role="line"
             y="-210.65681"
             x="138.14844 145.78044"
             style="font-size:12px;font-variant:normal;font-weight:normal;writing-mode:lr-tb;fill:#000000;fill-opacity:1;fill-rule:nonzero;stroke:none;font-family:Bitstream Vera Sans;-inkscape-font-specification:BitstreamVeraSans-Roman">0°</tspan></text>
<path
           inkscape:connector-curvature="0"
           id="path4134"
           style="fill:#000000;fill-opacity:1;fill-rule:nonzero;stroke:#000000;stroke-width:0.5;stroke-linecap:butt;stroke-linejoin:round;stroke-miterlimit:10;stroke-opacity:1;stroke-dasharray:none"
           d="m 163.84,227.78182 0,-4" /><text
           id="text4136"
           transform="scale(1,-1)"
           x="158.0275"
           y="-210.65681"><tspan
             id="tspan4138"
             sodipodi:role="line"
             y="-210.65681"
             x="158.0275 165.6595"
             style="font-size:12px;font-variant:normal;font-weight:normal;writing-mode:lr-tb;fill:#000000;fill-opacity:1;fill-rule:nonzero;stroke:none;font-family:Bitstream Vera Sans;-inkscape-font-specification:BitstreamVeraSans-Roman">2°</tspan></text>
<path
           inkscape:connector-curvature="0"
           id="path4140"
           style="fill:#000000;fill-opacity:1;fill-rule:nonzero;stroke:#000000;stroke-width:0.5;stroke-linecap:butt;stroke-linejoin:round;stroke-miterlimit:10;stroke-opacity:1;stroke-dasharray:none"
           d="m 193.6,227.78182 0,-4" /><text
           id="text4142"
           transform="scale(1,-1)"
           x="187.81094"
           y="-210.65681"><tspan
             id="tspan4144"
             sodipodi:role="line"
             y="-210.65681"
             x="187.81094 195.44295"
             style="font-size:12px;font-variant:normal;font-weight:normal;writing-mode:lr-tb;fill:#000000;fill-opacity:1;fill-rule:nonzero;stroke:none;font-family:Bitstream Vera Sans;-inkscape-font-specification:BitstreamVeraSans-Roman">5°</tspan></text>
<path
           inkscape:connector-curvature="0"
           id="path4146"
           style="fill:#000000;fill-opacity:1;fill-rule:nonzero;stroke:#000000;stroke-width:0.5;stroke-linecap:butt;stroke-linejoin:round;stroke-miterlimit:10;stroke-opacity:1;stroke-dasharray:none"
           d="m 243.2,227.78182 0,-4" /><text
           id="text4148"
           transform="scale(1,-1)"
           x="233.78593"
           y="-210.65681"><tspan
             id="tspan4150"
             sodipodi:role="line"
             y="-210.65681"
             x="233.78593 241.41794 249.04994"
             style="font-size:12px;font-variant:normal;font-weight:normal;writing-mode:lr-tb;fill:#000000;fill-opacity:1;fill-rule:nonzero;stroke:none;font-family:Bitstream Vera Sans;-inkscape-font-specification:BitstreamVeraSans-Roman">10°</tspan></text>
<path
           inkscape:connector-curvature="0"
           id="path4152"
           style="fill:#000000;fill-opacity:1;fill-rule:nonzero;stroke:#000000;stroke-width:0.5;stroke-linecap:butt;stroke-linejoin:round;stroke-miterlimit:10;stroke-opacity:1;stroke-dasharray:none"
           d="m 342.4,227.78182 0,-4" /><text
           id="text4154"
           transform="scale(1,-1)"
           x="332.76718"
           y="-210.65681"><tspan
             id="tspan4156"
             sodipodi:role="line"
             y="-210.65681"
             x="332.76718 340.3992 348.03119"
             style="font-size:12px;font-variant:normal;font-weight:normal;writing-mode:lr-tb;fill:#000000;fill-opacity:1;fill-rule:nonzero;stroke:none;font-family:Bitstream Vera Sans;-inkscape-font-specification:BitstreamVeraSans-Roman">20°</tspan></text>
<path
           inkscape:connector-curvature="0"
           id="path4158"
           style="fill:#000000;fill-opacity:1;fill-rule:nonzero;stroke:#000000;stroke-width:0.5;stroke-linecap:butt;stroke-linejoin:round;stroke-miterlimit:10;stroke-opacity:1;stroke-dasharray:none"
           d="m 540.8,227.78182 0,-4" /><text
           id="text4160"
           transform="scale(1,-1)"
           x="531.02655"
           y="-210.65681"><tspan
             id="tspan4162"
             sodipodi:role="line"
             y="-210.65681"
             x="531.02655 538.65857 546.29059"
             style="font-size:12px;font-variant:normal;font-weight:normal;writing-mode:lr-tb;fill:#000000;fill-opacity:1;fill-rule:nonzero;stroke:none;font-family:Bitstream Vera Sans;-inkscape-font-specification:BitstreamVeraSans-Roman">40°</tspan></text>
<path
           inkscape:connector-curvature="0"
           id="path4164"
           style="fill:#000000;fill-opacity:1;fill-rule:nonzero;stroke:#000000;stroke-width:0.5;stroke-linecap:butt;stroke-linejoin:round;stroke-miterlimit:10;stroke-opacity:1;stroke-dasharray:none"
           d="m 739.2,227.78182 0,-4" /><text
           id="text4166"
           transform="scale(1,-1)"
           x="729.55157"
           y="-210.65681"><tspan
             id="tspan4168"
             sodipodi:role="line"
             y="-210.65681"
             x="729.55157 737.18353 744.81555"
             style="font-size:12px;font-variant:normal;font-weight:normal;writing-mode:lr-tb;fill:#000000;fill-opacity:1;fill-rule:nonzero;stroke:none;font-family:Bitstream Vera Sans;-inkscape-font-specification:BitstreamVeraSans-Roman">60°</tspan></text>
<path
           inkscape:connector-curvature="0"
           id="path4170"
           style="fill:#000000;fill-opacity:1;fill-rule:nonzero;stroke:#000000;stroke-width:0.5;stroke-linecap:butt;stroke-linejoin:round;stroke-miterlimit:10;stroke-opacity:1;stroke-dasharray:none"
           d="m 937.6,227.78182 0,-4" /><text
           id="text4172"
           transform="scale(1,-1)"
           x="927.93591"
           y="-210.65681"><tspan
             id="tspan4174"
             sodipodi:role="line"
             y="-210.65681"
             x="927.93591 935.56793 943.19995"
             style="font-size:12px;font-variant:normal;font-weight:normal;writing-mode:lr-tb;fill:#000000;fill-opacity:1;fill-rule:nonzero;stroke:none;font-family:Bitstream Vera Sans;-inkscape-font-specification:BitstreamVeraSans-Roman">80°</tspan></text>
<path
           inkscape:connector-curvature="0"
           id="path4176"
           style="fill:#000000;fill-opacity:1;fill-rule:nonzero;stroke:#000000;stroke-width:0.5;stroke-linecap:butt;stroke-linejoin:round;stroke-miterlimit:10;stroke-opacity:1;stroke-dasharray:none"
           d="m 1036.8,227.78182 0,-4" /><text
           id="text4178"
           transform="scale(1,-1)"
           x="1027.1047"
           y="-210.65681"><tspan
             id="tspan4180"
             sodipodi:role="line"
             y="-210.65681"
             x="1027.1047 1034.7367 1042.3687"
             style="font-size:12px;font-variant:normal;font-weight:normal;writing-mode:lr-tb;fill:#000000;fill-opacity:1;fill-rule:nonzero;stroke:none;font-family:Bitstream Vera Sans;-inkscape-font-specification:BitstreamVeraSans-Roman">90°</tspan></text>
</g><g
         id="g4182"
         transform="translate(95.315477,345.58758)"><text
           transform="matrix(1,0,0,-1,0,0.359375)"
           id="text4184"><tspan
             style="font-size:14px;font-variant:normal;font-weight:normal;writing-mode:lr-tb;fill:#000000;fill-opacity:1;fill-rule:nonzero;stroke:none;font-family:Bitstream Vera Sans;-inkscape-font-specification:BitstreamVeraSans-Roman"
             x="0 8.8867188 14.375977 18.265625 31.90332 40.776367 44.666016 48.555664 53.005859 61.571289 70.444336 74.894531 80.650391 89.263672 94.75293 98.642578 107.51562 116.09473 120.54492 126.00684 133.30078 137.19043 141.08008 148.77734 157.39062"
             y="0"
             sodipodi:role="line"
             id="tspan4186">Stimuli on retina (slice </tspan></text>
<text
           transform="matrix(1,0,0,-1,161.84082,0.359375)"
           id="text4188"><tspan
             style="font-size:14px;font-variant:normal;font-weight:normal;writing-mode:lr-tb;fill:#000000;fill-opacity:1;fill-rule:nonzero;stroke:none;font-family:Cmmi10;-inkscape-font-specification:Cmmi10"
             x="0"
             y="0"
             id="tspan4190">θ</tspan></text>
<text
           transform="matrix(1,0,0,-1,168.41016,0.359375)"
           id="text4192"><tspan
             style="font-size:14px;font-variant:normal;font-weight:normal;writing-mode:lr-tb;fill:#000000;fill-opacity:1;fill-rule:nonzero;stroke:none;font-family:Bitstream Vera Sans;-inkscape-font-specification:BitstreamVeraSans-Roman"
             x="0 11.730469 20.637695 27.637695"
             y="0"
             sodipodi:role="line"
             id="tspan4194">=0°)</tspan></text>
</g><g
         transform="matrix(0.83697031,0,0,0.83697031,36.678716,38.709227)"
         id="g5700"><g
           id="g116"
           transform="matrix(0.41515876,0,0,0.41515876,-31.265577,184.14337)"><g
             id="g118"
             clip-path="url(#clipPath120)"><path
               d="m 91.717105,288 0,0"
               style="fill:none;stroke:#000000;stroke-width:2.40871692;stroke-linecap:square;stroke-linejoin:round;stroke-miterlimit:10;stroke-opacity:0.25;stroke-dasharray:none"
               id="path124"
               inkscape:connector-curvature="0" /></g></g><g
           id="g126"
           transform="matrix(0.41515876,0,0,0.41515876,-31.265577,184.14337)"><g
             id="g128"
             clip-path="url(#clipPath130)"><path
               d="m 91.717105,284.18421 0.904205,0.10868 0.852698,0.31985 0.752619,0.51279 0.609669,0.67654 0.431991,0.80174 0.229704,0.88126 0.01433,0.9106 -0.201854,0.88806 -0.406543,0.81494 -0.588074,0.69539 -0.736107,0.53623 -0.842209,0.34652 -0.900336,0.13709 -0.120097,0.002 0,0"
               style="fill:none;stroke:#000000;stroke-width:2.40871692;stroke-linecap:square;stroke-linejoin:round;stroke-miterlimit:10;stroke-opacity:0.25;stroke-dasharray:none"
               id="path134"
               inkscape:connector-curvature="0" /></g></g><g
           id="g136"
           transform="matrix(0.41515876,0,0,0.41515876,-31.265577,184.14337)"><g
             id="g138"
             clip-path="url(#clipPath140)"><path
               d="m 91.717105,278.46053 1.435923,0.10869 1.403202,0.32359 1.338506,0.53112 1.243309,0.72655 1.119779,0.90542 0.970734,1.06365 0.799562,1.19766 0.61019,1.30437 0.40688,1.38135 0.19433,1.42686 -0.0227,1.43985 -0.23914,1.42003 -0.45017,1.36786 -0.650927,1.28452 -0.836866,1.1719 -1.00373,1.03257 -1.147721,0.86973 -1.26556,0.68706 -1.354559,0.48873 -1.412692,0.27927 -1.13839,0.0682 0,0"
               style="fill:none;stroke:#000000;stroke-width:2.40871692;stroke-linecap:square;stroke-linejoin:round;stroke-miterlimit:10;stroke-opacity:0.25;stroke-dasharray:none"
               id="path144"
               inkscape:connector-curvature="0" /></g></g><g
           id="g146"
           transform="matrix(0.41515876,0,0,0.41515876,-31.265577,184.14337)"><g
             id="g148"
             clip-path="url(#clipPath150)"><path
               d="m 91.717105,268.92105 2.03809,0.10917 2.014765,0.32627 1.968383,0.53962 1.899477,0.7468 1.80883,0.94544 1.69749,1.13326 1.56671,1.3081 1.41801,1.46799 1.25308,1.61106 1.07381,1.7357 0.88225,1.84047 0.6806,1.9242 0.47115,1.98588 0.25632,2.02485 0.0386,2.04065 -0.17967,2.03309 -0.39582,2.00226 -0.60744,1.94852 -0.81212,1.87249 -1.00749,1.77501 -1.19134,1.65724 -1.36156,1.52048 -1.5162,1.36634 -1.65347,1.19656 -1.77184,1.01308 -1.869916,0.818 -1.946601,0.61358 -2.001006,0.40211 -2.032512,0.18607 -0.72053,0.0136 0,0"
               style="fill:none;stroke:#000000;stroke-width:2.40871692;stroke-linecap:square;stroke-linejoin:round;stroke-miterlimit:10;stroke-opacity:0.25;stroke-dasharray:none"
               id="path154"
               inkscape:connector-curvature="0" /></g></g><g
           id="g156"
           transform="matrix(0.41515876,0,0,0.41515876,-31.265577,184.14337)"><g
             id="g158"
             clip-path="url(#clipPath160)"><path
               d="m 91.717105,249.84211 2.880062,0.10884 2.863631,0.32591 2.830862,0.54113 2.78195,0.75325 2.71715,0.96107 2.63687,1.16341 2.54153,1.35913 2.4317,1.54707 2.308,1.7262 2.17112,1.89547 2.02187,2.05394 1.86107,2.20069 1.68965,2.33488 1.50861,2.45574 1.31896,2.56261 1.12177,2.65485 0.91818,2.73195 0.70937,2.79346 0.49651,2.83903 0.2808,2.8684 0.0635,2.88142 -0.15416,2.87799 -0.37094,2.85815 -0.58561,2.82199 -0.79694,2.76975 -1.00372,2.70169 -1.20477,2.61823 -1.39896,2.51983 -1.58515,2.40705 -1.76231,2.28054 -1.92941,2.14102 -2.08551,1.98929 -2.2297,1.8262 -2.36118,1.6527 -2.47919,1.46978 -2.58305,1.27845 -2.67218,1.07985 -2.74606,0.87508 -2.804272,0.66531 -2.846492,0.45176 -2.87247,0.23563 -1.681091,0.037 0,0"
               style="fill:none;stroke:#000000;stroke-width:2.40871692;stroke-linecap:square;stroke-linejoin:round;stroke-miterlimit:10;stroke-opacity:0.25;stroke-dasharray:none"
               id="path164"
               inkscape:connector-curvature="0" /></g></g><g
           id="g166"
           transform="matrix(0.41515876,0,0,0.41515876,-31.265577,184.14337)"><g
             id="g168"
             clip-path="url(#clipPath170)"><path
               d="m 91.717105,211.68421 4.321891,0.12248 4.308024,0.36703 4.28031,0.61042 4.23889,0.85184 4.18383,1.09053 4.11537,1.32571 4.03368,1.55665 3.93905,1.78258 3.83178,2.0028 3.71221,2.21658 3.58073,2.42325 3.43774,2.62215 3.28373,2.81263 3.11918,2.99407 2.94461,3.16591 2.7606,3.3276 2.56771,3.47858 2.3666,3.61842 2.15788,3.74664 1.94224,3.86283 1.72037,3.96662 1.49297,4.05768 1.26078,4.13572 1.02454,4.20048 0.78502,4.25177 0.54298,4.28939 0.29918,4.31326 0.0544,4.32329 -0.19048,4.31943 -0.43479,4.30171 -0.67771,4.27018 -0.91845,4.22495 -1.15624,4.16615 -1.39032,4.09399 -1.61994,4.00868 -1.84436,3.91051 -2.06286,3.79979 -2.27473,3.67686 -2.47931,3.54214 -2.67593,3.39605 -2.86396,3.23906 -3.04279,3.07167 -3.21187,2.89442 -3.37063,2.70788 -3.51857,2.51265 -3.65521,2.30935 -3.78014,2.09865 -3.89292,1.8812 -3.9932,1.65773 -4.08068,1.42892 -4.15505,1.19553 -4.21609,0.95831 -4.26359,0.718 -4.297412,0.4754 -4.317437,0.23126 -1.921666,0.0242 0,0"
               style="fill:none;stroke:#000000;stroke-width:2.40871692;stroke-linecap:square;stroke-linejoin:round;stroke-miterlimit:10;stroke-opacity:0.25;stroke-dasharray:none"
               id="path174"
               inkscape:connector-curvature="0" /></g></g><g
           id="g176"
           transform="matrix(0.41515876,0,0,0.41515876,-31.265577,184.14337)"><g
             id="g178"
             clip-path="url(#clipPath180)"><path
               d="m 91.717105,173.52632 5.043273,0.11114 5.033482,0.33323 5.01391,0.55466 4.9846,0.77501 4.94563,0.99387 4.89703,1.21078 4.83894,1.42536 4.77144,1.63715 4.69469,1.84578 4.60881,2.05081 4.51398,2.25187 4.41039,2.44856 4.29823,2.64048 4.17773,2.82728 4.04912,3.00859 3.91264,3.18405 3.76856,3.35334 3.61717,3.51612 3.45874,3.67206 3.29362,3.82087 3.12208,3.96226 2.94449,4.09597 2.76118,4.22171 2.5725,4.33926 2.37883,4.44838 2.18055,4.54887 1.97802,4.64051 1.77166,4.72316 1.56186,4.79661 1.34902,4.86078 1.13356,4.91548 0.9159,4.96065 0.69647,4.99619 0.47568,5.02202 0.25396,5.0381 0.0318,5.0444 -0.19051,5.0409 -0.4124,5.02761 -0.63351,5.00456 -0.85337,4.97179 -1.07158,4.92937 -1.28771,4.87737 -1.50133,4.8159 -1.71205,4.74509 -1.91944,4.66505 -2.1231,4.57596 -2.32263,4.47798 -2.51767,4.37131 -2.7078,4.25614 -2.89268,4.13272 -3.07194,4.00126 -3.24525,3.86204 -3.41224,3.71532 -3.5726,3.56138 -3.72604,3.40053 -3.87224,3.23306 -4.01091,3.05934 -4.1418,2.87966 -4.26465,2.69439 -4.37921,2.50389 -4.48527,2.30853 -4.58262,2.10868 -4.67107,1.90474 -4.75046,1.6971 -4.8206,1.48617 -4.8814,1.27235 -4.93272,1.05606 -4.97445,0.83772 -5.00653,0.61774 -5.028888,0.39658 -5.041473,0.17464 -1.441364,0.009 0,0"
               style="fill:none;stroke:#000000;stroke-width:2.40871692;stroke-linecap:square;stroke-linejoin:round;stroke-miterlimit:10;stroke-opacity:0.25;stroke-dasharray:none"
               id="path184"
               inkscape:connector-curvature="0" /></g></g><g
           id="g186"
           transform="matrix(0.41515876,0,0,0.41515876,-31.265577,184.14337)"><g
             id="g188"
             clip-path="url(#clipPath190)"><path
               d="m 91.717105,135.36842 5.764235,0.10889 5.75601,0.32649 5.73958,0.54364 5.71494,0.76002 5.68217,0.9753 5.64129,1.1892 5.59234,1.40139 5.53544,1.6116 5.47062,1.81949 5.39801,2.0248 5.31768,2.22721 5.22978,2.42645 5.13442,2.62222 5.03172,2.81426 4.92184,3.00228 4.80496,3.18601 4.6812,3.3652 4.55078,3.53959 4.41385,3.70893 4.27064,3.87298 4.12132,4.03149 3.96613,4.18427 3.80528,4.33106 3.639,4.47168 3.46753,4.60592 3.29111,4.73359 3.11,4.8545 2.92444,4.9685 2.73471,5.07539 2.54109,5.17504 2.34384,5.26733 2.14325,5.35208 1.93958,5.4292 1.73317,5.49858 1.52427,5.56011 1.31321,5.61372 1.10026,5.6593 0.88575,5.69681 0.66998,5.72621 0.45324,5.74742 0.23586,5.76043 0.0181,5.76524 -0.19959,5.7618 -0.41705,5.75016 -0.63391,5.73031 -0.84987,5.70228 -1.06461,5.66612 -1.27784,5.62186 -1.48923,5.5696 -1.69852,5.50939 -1.90537,5.4413 -2.1095,5.36547 -2.31063,5.28198 -2.50846,5.19094 -2.70271,5.09251 -2.89311,4.9868 -3.07937,4.87399 -3.26124,4.75421 -3.43846,4.62766 -3.61077,4.49451 -3.77794,4.35493 -3.93971,4.20915 -4.09586,4.05736 -4.24617,3.89979 -4.39042,3.73664 -4.5284,3.56817 -4.65992,3.39461 -4.78481,3.2162 -4.90284,3.0332 -5.01391,2.84588 -5.1178,2.6545 -5.2144,2.45933 -5.30356,2.26065 -5.38515,2.05874 -5.45906,1.8539 -5.52518,1.64641 -5.58341,1.43657 -5.63368,1.22469 -5.67592,1.01106 -5.71005,0.79598 -5.73604,0.57976 -5.753841,0.36273 -5.763436,0.14517 -0.960928,0.003 0,0"
               style="fill:none;stroke:#000000;stroke-width:2.40871692;stroke-linecap:square;stroke-linejoin:round;stroke-miterlimit:10;stroke-opacity:0.25;stroke-dasharray:none"
               id="path194"
               inkscape:connector-curvature="0" /></g></g><g
           id="g196"
           transform="matrix(0.41515876,0,0,0.41515876,-31.265577,184.14337)"
           style="stroke:#000000;stroke-width:1.9269737;stroke-miterlimit:4;stroke-opacity:1;stroke-dasharray:none"><g
             id="g198"
             clip-path="url(#clipPath200)"
             style="stroke:#000000;stroke-width:1.9269737;stroke-miterlimit:4;stroke-opacity:1;stroke-dasharray:none"><path
               d="m 91.717105,116.28947 6.484765,0.1225 6.47551,0.36731 6.45702,0.6116 6.42932,0.85501 6.39244,1.09722 6.34644,1.33784 6.2914,1.57657 6.22736,1.81304 6.15445,2.04693 6.07275,2.2779 5.9824,2.50562 5.8835,2.72975 5.77622,2.95 5.66068,3.16604 5.53708,3.37757 5.40558,3.58426 5.26635,3.78585 5.11963,3.98204 4.96558,4.17255 4.80447,4.35709 4.63649,4.53544 4.46189,4.70729 4.28094,4.87245 4.09388,5.03064 3.90097,5.18166 3.7025,5.32529 3.49874,5.46132 3.29,5.58955 3.07655,5.70981 2.85873,5.82193 2.63682,5.92574 2.41115,6.02109 2.18203,6.10785 1.94982,6.18591 1.7148,6.25512 1.47736,6.31543 1.23779,6.36671 0.99647,6.40892 0.75372,6.44198 0.5099,6.46585 0.26535,6.48049 0.0204,6.48589 -0.22454,6.48203 -0.46918,6.46893 -0.71315,6.44659 -0.9561,6.41507 -1.19768,6.37438 -1.43757,6.3246 -1.67539,6.2658 -1.91083,6.19806 -2.14354,6.12147 -2.3732,6.03615 -2.59945,5.94222 -2.82202,5.83981 -3.04055,5.72907 -3.25474,5.61015 -3.46429,5.48324 -3.6689,5.34849 -3.86827,5.20612 -4.06212,5.05632 -4.25018,4.8993 -4.43217,4.73529 -4.60785,4.56453 -4.77694,4.38726 -4.93922,4.20373 -5.09445,4.01419 -5.24241,3.81893 -5.3829,3.61823 -5.51571,3.41235 -5.64064,3.20162 -5.75753,2.98631 -5.8662,2.76674 -5.9665,2.54323 -6.0583,2.31608 -6.14144,2.08564 -6.21582,1.85221 -6.28134,1.61615 -6.3379,1.37777 -6.3854,1.13744 -6.42381,0.89548 -6.45304,0.65224 -6.473076,0.40806 -6.483865,0.16332 -1.081044,0.003 0,0"
               style="fill:none;stroke:#000000;stroke-width:1.9269737;stroke-linecap:square;stroke-linejoin:round;stroke-miterlimit:4;stroke-opacity:1;stroke-dasharray:none"
               id="path204"
               inkscape:connector-curvature="0" /></g></g><g
           id="g206"
           transform="matrix(0.41515876,0,0,0.41515876,-31.265577,184.14337)"
           style="stroke:#000000;stroke-width:1.9269737;stroke-miterlimit:4;stroke-opacity:1;stroke-dasharray:none"><g
             id="g208"
             clip-path="url(#clipPath210)"
             style="stroke:#000000;stroke-width:1.9269737;stroke-miterlimit:4;stroke-opacity:1;stroke-dasharray:none"><path
               d="m 91.717105,288 0,-171.71053 0,0"
               style="fill:none;stroke:#000000;stroke-width:1.9269737;stroke-linecap:square;stroke-linejoin:round;stroke-miterlimit:4;stroke-opacity:1;stroke-dasharray:none"
               id="path214"
               inkscape:connector-curvature="0" /></g></g><g
           id="g216"
           transform="matrix(0.41515876,0,0,0.41515876,-31.265577,184.14337)"><g
             id="g218"
             clip-path="url(#clipPath220)"><path
               d="m 91.717105,288 85.855265,-148.70568 0,0"
               style="fill:none;stroke:#000000;stroke-width:2.40871692;stroke-linecap:square;stroke-linejoin:round;stroke-miterlimit:10;stroke-opacity:0.25;stroke-dasharray:none"
               id="path224"
               inkscape:connector-curvature="0" /></g></g><g
           id="g226"
           transform="matrix(0.41515876,0,0,0.41515876,-31.265577,184.14337)"><g
             id="g228"
             clip-path="url(#clipPath230)"><path
               d="m 91.717105,288 148.705675,-85.85526 0,0"
               style="fill:none;stroke:#000000;stroke-width:2.40871692;stroke-linecap:square;stroke-linejoin:round;stroke-miterlimit:10;stroke-opacity:0.25;stroke-dasharray:none"
               id="path234"
               inkscape:connector-curvature="0" /></g></g><g
           id="g236"
           transform="matrix(0.41515876,0,0,0.41515876,-31.265577,184.14337)"
           style="stroke:#0000ff;stroke-width:3.8539474;stroke-miterlimit:4;stroke-opacity:1;stroke-dasharray:none"><g
             id="g238"
             clip-path="url(#clipPath240)"
             style="stroke:#0000ff;stroke-width:3.8539474;stroke-miterlimit:4;stroke-opacity:1;stroke-dasharray:none"><path
               d="m 91.717105,288 171.710525,0 0,0"
               style="fill:none;stroke:#0000ff;stroke-width:3.8539474;stroke-linecap:square;stroke-linejoin:round;stroke-miterlimit:4;stroke-opacity:1;stroke-dasharray:none"
               id="path244"
               inkscape:connector-curvature="0" /></g></g><g
           id="g246"
           transform="matrix(0.41515876,0,0,0.41515876,-31.265577,184.14337)"><g
             id="g248"
             clip-path="url(#clipPath250)"><path
               d="m 91.717105,288 148.705675,85.85526 0,0"
               style="fill:none;stroke:#000000;stroke-width:2.40871692;stroke-linecap:square;stroke-linejoin:round;stroke-miterlimit:10;stroke-opacity:0.25;stroke-dasharray:none"
               id="path254"
               inkscape:connector-curvature="0" /></g></g><g
           id="g256"
           transform="matrix(0.41515876,0,0,0.41515876,-31.265577,184.14337)"><g
             id="g258"
             clip-path="url(#clipPath260)"><path
               d="m 91.717105,288 85.855265,148.70568 0,0"
               style="fill:none;stroke:#000000;stroke-width:2.40871692;stroke-linecap:square;stroke-linejoin:round;stroke-miterlimit:10;stroke-opacity:0.25;stroke-dasharray:none"
               id="path264"
               inkscape:connector-curvature="0" /></g></g><g
           id="g266"
           transform="matrix(0.41515876,0,0,0.41515876,-31.265577,184.14337)"
           style="stroke:#000000;stroke-width:1.9269737;stroke-miterlimit:4;stroke-opacity:1;stroke-dasharray:none"><g
             id="g268"
             clip-path="url(#clipPath270)"
             style="stroke:#000000;stroke-width:1.9269737;stroke-miterlimit:4;stroke-opacity:1;stroke-dasharray:none"><path
               d="m 91.717105,288 0,171.71053 0,0"
               style="fill:none;stroke:#000000;stroke-width:1.9269737;stroke-linecap:square;stroke-linejoin:round;stroke-miterlimit:4;stroke-opacity:1;stroke-dasharray:none"
               id="path274"
               inkscape:connector-curvature="0" /></g></g></g></g><g
       id="g6023"
       transform="translate(-22.069012,49.6)"><g
         transform="matrix(1,0,0,0.3,-13.241379,90.267586)"
         id="g4198"><g
           clip-path="url(#clipPath4202)"
           id="g4200"><path
             inkscape:connector-curvature="0"
             id="path4206"
             style="fill:none;stroke:#0000ff;stroke-width:1.82574189;stroke-linecap:square;stroke-linejoin:round;stroke-miterlimit:10;stroke-opacity:1;stroke-dasharray:none"
             d="m 144,44.052226 0.8727,0 0.8727,0.203602 3.4908,0 0.8727,0.246032 2.6181,0 0.8727,0.295742 2.6181,0 0.8727,0.353617 2.6181,0 0.8727,0.420572 2.6181,0 0.8727,0.497534 2.6181,0 0.8727,0.58542 2.61811,0 0.8727,0.685112 2.6181,0 0.8727,0.797421 2.6181,0 0.8727,0.923063 2.6181,0 0.8727,1.062609 2.6181,0 0.8727,1.216451 1.7454,0 0.8727,1.38476 2.6181,0 0.8727,1.567433 1.7454,0 0.8727,1.764061 2.6181,0 0.8727,1.973877 2.6181,0 0.8727,2.195724 1.7454,0 0.8727,2.428026 2.6181,0 0.8727,2.668753 1.7454,0 0.8727,2.915426 1.7454,0 0.8727,3.165095 2.6181,0 0.8727,3.41437 1.7454,0 0.8727,3.659438 1.7454,0 0.87271,3.896108 1.7454,0 0.8727,4.119875 2.6181,0 0.8727,4.325996 1.7454,0 0.8727,4.509579 1.7454,0 0.8727,4.665696 1.7454,0 0.8727,4.789502 1.7454,0 0.8727,4.87633 1.7454,0 0.8727,4.92192 1.7454,0 0.8727,4.92239 1.7454,0 0.8727,4.87456 1.7454,0 0.8727,4.77588 1.7454,0 0.8727,4.62473 1.7454,0 0.8727,4.42033 1.7454,0 0.8727,4.16297 0.8727,0 0.8727,3.85392 1.7454,0 0.8727,3.49556 1.7454,0 0.8727,3.09127 1.7454,0 0.8727,2.64548 1.7454,0 0.8727,2.16349 0.8727,0 0.8727,1.65147 1.74541,0 0.8727,1.11627 1.7454,0 0.8727,0.56527 3.4908,0.006 0.8727,-0.55291 0.8727,0 0.8727,-1.10417 1.7454,0 0.8727,-1.6398 1.7454,0 0.8727,-2.15242 0.8727,0 0.8727,-2.63513 1.7454,0 0.8727,-3.0818 0.8727,0 0.8727,-3.48706 1.7454,0 0.8727,-3.84648 0.8727,0 0.8727,-4.15666 0.8727,0 0.8727,-4.41518 1.7454,0 0.8727,-4.62077 0.8727,0 0.8727,-4.7731 1.7454,0 0.8727,-4.87292 0.8727,0 0.8727,-4.92187 0.8727,0 0.8727,-4.92243 1.7454,0 0.8727,-4.87781 0.8727,0 0.8727,-4.79184 0.8727,0 0.8727,-4.668821 0.8727,0 0.8727,-4.513365 1.7454,0 0.8727,-4.330339 0.8727,0 0.8727,-4.124665 0.87271,0 0.8727,-3.901238 0.8727,0 0.8727,-3.664804 0.8727,0 0.8727,-3.419877 0.8727,0 0.8727,-3.170652 1.7454,0 0.8727,-2.920953 0.8727,0 0.8727,-2.674181 0.8727,0 0.8727,-2.433291 0.8727,0 0.8727,-2.20078 0.8727,0 0.8727,-1.978682 0.8727,0 0.8727,-1.768583 0.8727,0 0.8727,-1.571654 0.8727,0 0.8727,-1.388664 0.8727,0 0.8727,-1.220034 0.8727,0 0.8727,-1.065871 0.8727,0 0.8727,-0.926011 0.8727,0 0.8727,-0.800066 0.8727,0 0.8727,-0.687467 0.8727,0 0.8727,-0.587505 0.8727,0 0.8727,-0.499365 0.8727,0 0.8727,-0.42217 0.8727,0 0.8727,-0.355002 0.8727,0 0.8727,-0.296936 0.8727,0 0.8727,-0.247055 0.8727,0 1.7454,-0.372814 0.8727,0 0.8727,-0.137873 0.8727,0 0.8727,-0.112333 2.6181,-0.09105 2.61811,-0.132312 3.4908,-0.08432 5.2362,-0.08487 654.52515,-0.04524 0,0" /></g></g><g
         transform="matrix(1,0,0,0.3,-13.241379,90.267586)"
         id="g4208"><g
           clip-path="url(#clipPath4212)"
           id="g4210"><path
             inkscape:connector-curvature="0"
             id="path4216"
             style="fill:none;stroke:#0000ff;stroke-width:1.82574189;stroke-linecap:square;stroke-linejoin:round;stroke-miterlimit:10;stroke-opacity:1;stroke-dasharray:none"
             d="m 144,43.2 162.32223,0.09334 15.70861,0.551925 0.8727,0.158992 0.8727,0 0.8727,0.193407 0.8727,0 0.8727,0.234042 0.8727,0 0.8727,0.281725 1.7454,0 0.8727,0.337334 0.8727,0 0.8727,0.401777 0.8727,0 0.8727,0.47598 0.8727,0 0.8727,0.560865 0.8727,0 0.8727,0.657326 0.8727,0 0.8727,0.766196 0.8727,0 0.8727,0.888219 0.8727,0 0.8727,1.024011 0.8727,0 0.8727,1.174015 0.8727,0 0.8727,1.338463 0.8727,0 0.8727,1.517333 0.8727,0 0.8727,1.710299 0.8727,0 0.8727,1.916695 0.8727,0 0.8727,2.13547 0.8727,0 0.8727,2.365163 0.8727,0 0.8727,2.603867 0.8727,0 0.8727,2.849223 0.8727,0 0.8727,3.098408 0.8727,0 0.8727,3.348144 0.8727,0 1.7454,7.428795 0.8727,0 0.8727,4.06173 0.8727,0 0.8727,4.27303 0.8727,0 0.8727,4.463106 0.8727,0 0.8727,4.627027 0.87271,0 0.8727,4.759913 0.8727,0 1.7454,9.77107 0.8727,0 0.8727,4.92687 0.8727,0 0.8727,4.89219 0.8727,0 1.7454,9.4775 0.8727,0 0.8727,4.48005 0.8727,0 1.7454,8.17799 0.8727,0 0.8727,3.59577 0.8727,0 0.8727,3.20334 0.8727,0 0.8727,2.76813 0.8727,2.29523 0.8727,0 0.8727,1.79057 0.8727,0 0.8727,1.26085 0.8727,0.71331 0.8727,0 0.8727,0.15565 0.8727,0 0.8727,-0.40425 0.8727,-0.95838 0.8727,0 0.8727,-1.49892 0.8727,-2.01837 0.8727,0 0.8727,-2.5097 0.8727,0 0.8727,-2.96653 0.8727,-3.3833 0.8727,0 1.7454,-7.83424 0.8727,0 1.7454,-8.92255 0.8727,0 0.8727,-4.73766 0.8727,0 1.7454,-9.76502 0.8727,0 1.7454,-9.82076 0.8727,0 2.61811,-14.081289 0.8727,0 1.7454,-8.563011 0.8727,0 1.7454,-7.691148 0.8727,0 1.7454,-6.723087 0.8727,0 1.7454,-5.726911 0.8727,0 1.7454,-4.758645 0.8727,-2.036792 0.8727,0 1.7454,-3.446193 0.8727,0 1.7454,-2.699655 0.8727,-1.105572 0.8727,0 1.7454,-1.794247 0.8727,-0.716227 0.8727,0 1.7454,-1.134731 0.8727,0 1.7454,-0.813722 1.7454,-0.57119 0.8727,0 2.6181,-0.538041 0.8727,0 2.6181,-0.292838 1.7454,-0.06249 4.3635,-0.145781 7.85431,-0.07134 34.908,-0.01175 526.23823,0 0,0" /></g></g><g
         transform="matrix(1,0,0,0.3,-13.241379,90.267586)"
         id="g4218"><g
           clip-path="url(#clipPath4222)"
           id="g4220"><path
             inkscape:connector-curvature="0"
             id="path4226"
             style="fill:none;stroke:#0000ff;stroke-width:1.82574189;stroke-linecap:square;stroke-linejoin:round;stroke-miterlimit:10;stroke-opacity:1;stroke-dasharray:none"
             d="m 144,43.2 328.13526,0.0989 5.23621,0.242438 4.3635,0.502722 1.7454,0.44587 1.7454,0.644225 0.8727,0 1.7454,0.911278 1.7454,1.261689 1.7454,1.709339 0.8727,1.056105 0.8727,0 1.7454,2.586279 1.7454,3.314049 1.7454,4.149915 1.7454,5.075414 0.8727,2.904375 0.8727,0 1.7454,6.557332 1.7454,7.534521 1.7454,8.427546 2.6181,13.946123 2.6181,14.71752 0.8727,0 2.6181,14.29169 1.7454,8.60606 1.7454,7.38122 0.8727,3.11016 0.8727,2.6661 0.8727,2.1856 0.8727,1.67477 0.8727,1.14045 0.87271,0.58999 0.8727,0.0311 0.8727,-0.52816 0.8727,-1.07994 0.8727,-1.61644 0.8727,-2.13022 0.8727,-2.6144 0.8727,-3.0628 1.7454,-7.30152 1.7454,-8.54877 2.6181,-14.24979 3.4908,-19.52132 0.8727,-9.1959 1.7454,-8.473209 1.7454,-7.587004 1.7454,-6.612649 1.7454,-5.617056 1.7454,-4.654743 0.8727,-1.988307 0.8727,-3.357763 1.7454,-2.623715 1.7454,-2.004345 1.7454,-1.497574 1.7454,-1.100443 0.8727,-0.42437 0.8727,-0.655562 1.7454,-0.45425 2.6181,-0.421307 3.4908,-0.309666 6.1089,-0.116852 16.58131,-0.01473 445.94981,-3e-6 0,0" /></g></g><g
         transform="matrix(1,0,0,0.3,-13.241379,90.267586)"
         id="g4228"><g
           clip-path="url(#clipPath4232)"
           id="g4230"><path
             inkscape:connector-curvature="0"
             id="path4236"
             style="fill:none;stroke:#0000ff;stroke-width:1.82574189;stroke-linecap:square;stroke-linejoin:round;stroke-miterlimit:10;stroke-opacity:1;stroke-dasharray:none"
             d="m 144,43.2 500.9299,0.110679 3.4908,0.365695 0.8727,0.26957 0.8727,0.400086 0.8727,0.264365 0.8727,0.695461 0.8727,0.449034 0.8727,1.152415 0.8727,1.570779 0.8727,0.974863 0.8727,2.398738 0.8727,3.093195 0.8727,1.842072 0.8727,4.338408 0.8727,5.277723 0.8727,3.007947 0.8727,6.762076 0.8727,7.72438 0.8727,4.194718 1.7454,18.482246 0.8727,4.88811 2.6181,28.20586 0.8727,4.03583 0.8727,7.03869 0.8727,5.36158 0.8727,3.3936 0.8727,0.89521 0.8727,0.12401 1.7454,-3.93416 0.8727,-5.15561 0.87271,-6.86932 1.7454,-17.39342 0.8727,-4.8078 2.6181,-28.872472 0.8727,-8.673034 0.8727,-4.027559 0.8727,-7.358045 0.8727,-6.375918 0.8727,-5.385854 0.8727,-4.439173 0.8727,-3.572795 0.8727,-2.809536 0.8727,-1.153887 0.8727,-2.629417 0.8727,-0.644474 0.8727,-1.015682 0.8727,-0.723165 0.8727,-0.504045 1.7454,-0.573889 1.7454,-0.246999 3.4908,-0.133768 25.3083,-0.01732 309.80859,0 0,0" /></g></g><g
         transform="matrix(1,0,0,0.3,-13.241379,90.267586)"
         id="g4238"><g
           clip-path="url(#clipPath4242)"
           id="g4240"><path
             inkscape:connector-curvature="0"
             id="path4246"
             style="fill:none;stroke:#0000ff;stroke-width:1.82574189;stroke-linecap:square;stroke-linejoin:round;stroke-miterlimit:10;stroke-opacity:1;stroke-dasharray:none"
             d="m 144,43.2 677.21533,0.106788 0.8727,0.119914 0.8727,0.234387 0.8727,0.65052 0.8727,0.93424 0.8727,1.561533 0.8727,2.48669 0.8727,3.769177 1.74541,15.817259 0.8727,10.352933 1.7454,26.354519 0.8727,19.40023 0.8727,13.53079 0.8727,11.11127 0.8727,7.4236 0.8727,2.68027 0.8727,-3.72907 0.8727,-8.18838 1.7454,-30.33339 0.8727,-14.55869 0.8727,-17.95138 0.8727,-11.381667 1.7454,-18.143438 0.8727,-4.522837 0.8727,-3.057007 0.8727,-2.463449 0.8727,-0.999205 0.8727,-0.701278 1.7454,-0.412966 2.6181,-0.08605 30.54451,-0.0053 153.59525,0 0,0" /></g></g><g
         transform="matrix(1,0,0,0.3,-13.241379,90.267586)"
         id="g4248"><g
           clip-path="url(#clipPath4252)"
           id="g4250"><path
             inkscape:connector-curvature="0"
             id="path4256"
             style="fill:none;stroke:#0000ff;stroke-width:1.82574189;stroke-linecap:square;stroke-linejoin:round;stroke-miterlimit:10;stroke-opacity:1;stroke-dasharray:none"
             d="m 144,43.2 781.06665,0.07899 0.8727,0.19872 0.8727,0.589145 0.8727,1.111147 0.8727,3.005911 0.8727,6.165173 0.87271,8.338957 0.8727,15.702161 0.8727,20.293521 0.8727,23.487475 0.8727,17.16902 0.8727,14.31668 0.8727,2.21235 0.8727,-10.63577 0.8727,-19.99742 0.8727,-23.47733 1.7454,-34.908979 0.8727,-11.551492 0.8727,-6.603558 0.8727,-3.279106 0.8727,-1.422432 0.8727,-0.541069 0.8727,-0.180956 2.6181,-0.07035 89.01544,-7.83e-4 0,0" /></g></g><g
         transform="matrix(1,0,0,0.3,-13.241379,90.267586)"
         id="g4258"><g
           clip-path="url(#clipPath4262)"
           id="g4260"><path
             inkscape:connector-curvature="0"
             id="path4266"
             style="fill:none;stroke:#0000ff;stroke-width:1.82574189;stroke-linecap:square;stroke-linejoin:round;stroke-miterlimit:10;stroke-opacity:1;stroke-dasharray:none"
             d="m 144,43.2 855.24617,0.07384 0.87273,0.342914 0.8727,1.109 0.8727,3.180514 0.8727,7.524577 0.8727,17.7827 0.8727,23.79737 0.8727,27.474225 0.8727,22.16703 0.8727,6.92363 0.8727,-13.46423 0.8727,-25.2205 0.8727,-31.076002 0.8727,-19.887424 0.8727,-13.112568 0.8727,-4.933993 0.8727,-2.042324 0.8727,-0.483611 1.7454,-0.151131 20.9448,-0.004 0,0" /></g></g><path
         d="m 130.75862,99.300313 0,-4"
         style="fill:#000000;fill-opacity:1;fill-rule:nonzero;stroke:#000000;stroke-width:0.5;stroke-linecap:butt;stroke-linejoin:round;stroke-miterlimit:10;stroke-opacity:1;stroke-dasharray:none"
         id="path4270"
         inkscape:connector-curvature="0" /><text
         y="-82.175316"
         x="124.90706"
         transform="scale(1,-1)"
         id="text4272"><tspan
           style="font-size:12px;font-variant:normal;font-weight:normal;writing-mode:lr-tb;fill:#000000;fill-opacity:1;fill-rule:nonzero;stroke:none;font-family:Bitstream Vera Sans;-inkscape-font-specification:BitstreamVeraSans-Roman"
           x="124.90706 132.53906"
           y="-82.175316"
           sodipodi:role="line"
           id="tspan4274">0°</tspan></text>
<path
         d="m 263.56783,99.300313 0,-4"
         style="fill:#000000;fill-opacity:1;fill-rule:nonzero;stroke:#000000;stroke-width:0.5;stroke-linecap:butt;stroke-linejoin:round;stroke-miterlimit:10;stroke-opacity:1;stroke-dasharray:none"
         id="path4276"
         inkscape:connector-curvature="0" /><text
         y="-82.175316"
         x="257.75531"
         transform="scale(1,-1)"
         id="text4278"><tspan
           style="font-size:12px;font-variant:normal;font-weight:normal;writing-mode:lr-tb;fill:#000000;fill-opacity:1;fill-rule:nonzero;stroke:none;font-family:Bitstream Vera Sans;-inkscape-font-specification:BitstreamVeraSans-Roman"
           x="257.75531 265.38733"
           y="-82.175316"
           sodipodi:role="line"
           id="tspan4280">2°</tspan></text>
<path
         d="m 385.76375,99.300313 0,-4"
         style="fill:#000000;fill-opacity:1;fill-rule:nonzero;stroke:#000000;stroke-width:0.5;stroke-linecap:butt;stroke-linejoin:round;stroke-miterlimit:10;stroke-opacity:1;stroke-dasharray:none"
         id="path4282"
         inkscape:connector-curvature="0" /><text
         y="-82.175316"
         x="379.97467"
         transform="scale(1,-1)"
         id="text4284"><tspan
           style="font-size:12px;font-variant:normal;font-weight:normal;writing-mode:lr-tb;fill:#000000;fill-opacity:1;fill-rule:nonzero;stroke:none;font-family:Bitstream Vera Sans;-inkscape-font-specification:BitstreamVeraSans-Roman"
           x="379.97467 387.60669"
           y="-82.175316"
           sodipodi:role="line"
           id="tspan4286">5°</tspan></text>
<path
         d="m 511.9906,99.300313 0,-4"
         style="fill:#000000;fill-opacity:1;fill-rule:nonzero;stroke:#000000;stroke-width:0.5;stroke-linecap:butt;stroke-linejoin:round;stroke-miterlimit:10;stroke-opacity:1;stroke-dasharray:none"
         id="path4288"
         inkscape:connector-curvature="0" /><text
         y="-82.175316"
         x="502.57654"
         transform="scale(1,-1)"
         id="text4290"><tspan
           style="font-size:12px;font-variant:normal;font-weight:normal;writing-mode:lr-tb;fill:#000000;fill-opacity:1;fill-rule:nonzero;stroke:none;font-family:Bitstream Vera Sans;-inkscape-font-specification:BitstreamVeraSans-Roman"
           x="502.57654 510.2085 517.84052"
           y="-82.175316"
           sodipodi:role="line"
           id="tspan4292">10°</tspan></text>
<path
         d="m 660.32617,99.300313 0,-4"
         style="fill:#000000;fill-opacity:1;fill-rule:nonzero;stroke:#000000;stroke-width:0.5;stroke-linecap:butt;stroke-linejoin:round;stroke-miterlimit:10;stroke-opacity:1;stroke-dasharray:none"
         id="path4294"
         inkscape:connector-curvature="0" /><text
         y="-82.175316"
         x="650.69336"
         transform="scale(1,-1)"
         id="text4296"><tspan
           style="font-size:12px;font-variant:normal;font-weight:normal;writing-mode:lr-tb;fill:#000000;fill-opacity:1;fill-rule:nonzero;stroke:none;font-family:Bitstream Vera Sans;-inkscape-font-specification:BitstreamVeraSans-Roman"
           x="650.69336 658.32532 665.95734"
           y="-82.175316"
           sodipodi:role="line"
           id="tspan4298">20°</tspan></text>
<path
         d="m 823.00302,99.300313 0,-4"
         style="fill:#000000;fill-opacity:1;fill-rule:nonzero;stroke:#000000;stroke-width:0.5;stroke-linecap:butt;stroke-linejoin:round;stroke-miterlimit:10;stroke-opacity:1;stroke-dasharray:none"
         id="path4300"
         inkscape:connector-curvature="0" /><text
         y="-82.175316"
         x="813.22955"
         transform="scale(1,-1)"
         id="text4302"><tspan
           style="font-size:12px;font-variant:normal;font-weight:normal;writing-mode:lr-tb;fill:#000000;fill-opacity:1;fill-rule:nonzero;stroke:none;font-family:Bitstream Vera Sans;-inkscape-font-specification:BitstreamVeraSans-Roman"
           x="813.22955 820.86157 828.49359"
           y="-82.175316"
           sodipodi:role="line"
           id="tspan4304">40°</tspan></text>
<path
         d="m 922.30194,99.300313 0,-4"
         style="fill:#000000;fill-opacity:1;fill-rule:nonzero;stroke:#000000;stroke-width:0.5;stroke-linecap:butt;stroke-linejoin:round;stroke-miterlimit:10;stroke-opacity:1;stroke-dasharray:none"
         id="path4306"
         inkscape:connector-curvature="0" /><text
         y="-82.175316"
         x="912.6535"
         transform="scale(1,-1)"
         id="text4308"><tspan
           style="font-size:12px;font-variant:normal;font-weight:normal;writing-mode:lr-tb;fill:#000000;fill-opacity:1;fill-rule:nonzero;stroke:none;font-family:Bitstream Vera Sans;-inkscape-font-specification:BitstreamVeraSans-Roman"
           x="912.6535 920.28546 927.91748"
           y="-82.175316"
           sodipodi:role="line"
           id="tspan4310">60°</tspan></text>
<path
         d="m 993.98252,99.300313 0,-4"
         style="fill:#000000;fill-opacity:1;fill-rule:nonzero;stroke:#000000;stroke-width:0.5;stroke-linecap:butt;stroke-linejoin:round;stroke-miterlimit:10;stroke-opacity:1;stroke-dasharray:none"
         id="path4312"
         inkscape:connector-curvature="0" /><text
         y="-82.175316"
         x="984.31842"
         transform="scale(1,-1)"
         id="text4314"><tspan
           style="font-size:12px;font-variant:normal;font-weight:normal;writing-mode:lr-tb;fill:#000000;fill-opacity:1;fill-rule:nonzero;stroke:none;font-family:Bitstream Vera Sans;-inkscape-font-specification:BitstreamVeraSans-Roman"
           x="984.31842 991.95038 999.58252"
           y="-82.175316"
           sodipodi:role="line"
           id="tspan4316">80°</tspan></text>
<path
         d="m 1023.5586,99.300313 0,-4"
         style="fill:#000000;fill-opacity:1;fill-rule:nonzero;stroke:#000000;stroke-width:0.5;stroke-linecap:butt;stroke-linejoin:round;stroke-miterlimit:10;stroke-opacity:1;stroke-dasharray:none"
         id="path4318"
         inkscape:connector-curvature="0" /><text
         y="-82.175316"
         x="1013.8633"
         transform="scale(1,-1)"
         id="text4320"><tspan
           style="font-size:12px;font-variant:normal;font-weight:normal;writing-mode:lr-tb;fill:#000000;fill-opacity:1;fill-rule:nonzero;stroke:none;font-family:Bitstream Vera Sans;-inkscape-font-specification:BitstreamVeraSans-Roman"
           x="1013.8633 1021.4953 1029.1273"
           y="-82.175316"
           sodipodi:role="line"
           id="tspan4322">90°</tspan></text>
<g
         id="g4324"
         transform="translate(131.94017,150.53981)"><text
           transform="matrix(1,0,0,-1,0,0.359375)"
           id="text4326"><tspan
             style="font-size:14px;font-variant:normal;font-weight:normal;writing-mode:lr-tb;fill:#000000;fill-opacity:1;fill-rule:nonzero;stroke:none;font-family:Bitstream Vera Sans;-inkscape-font-specification:BitstreamVeraSans-Roman"
             x="0 8.4423828 14.198242 22.763672 26.65332 35.266602 42.963867 48.453125 52.342773 60.908203 69.78125 74.231445 82.796875 87.725586 92.175781 99.469727 104.95898 108.84863 122.48633 131.35938 135.24902 139.13867 143.58887 152.1543 161.02734 165.47754 172.77148 181.64453 190.53125 199.14453 204.90039 208.79004 217.35547 223.11133 227.56152 235.25879 243.82422 247.71387 251.60352 255.49316 263.19043 272.06348 275.95312 284.82617 292.12012 296.57031 305.14941 313.43457 317.32422 324.61816 329.06836 334.53027 341.82422 345.71387 349.60352 357.30078 365.91406"
             y="0"
             sodipodi:role="line"
             id="tspan4328">Projection of stimuli on superior colliculus axis (slice </tspan></text>
<text
           transform="matrix(1,0,0,-1,370.36426,0.359375)"
           id="text4330"><tspan
             style="font-size:14px;font-variant:normal;font-weight:normal;writing-mode:lr-tb;fill:#000000;fill-opacity:1;fill-rule:nonzero;stroke:none;font-family:Cmmi10;-inkscape-font-specification:Cmmi10"
             x="0"
             y="0"
             id="tspan4332">θ</tspan></text>
<text
           transform="matrix(1,0,0,-1,376.93359,0.359375)"
           id="text4334"><tspan
             style="font-size:14px;font-variant:normal;font-weight:normal;writing-mode:lr-tb;fill:#000000;fill-opacity:1;fill-rule:nonzero;stroke:none;font-family:Bitstream Vera Sans;-inkscape-font-specification:BitstreamVeraSans-Roman"
             x="0 11.730469 20.637695 27.637695"
             y="0"
             sodipodi:role="line"
             id="tspan4336">=0°)</tspan></text>
</g><g
         transform="matrix(0.83352879,0,0,0.83352879,20.899376,7.2441328)"
         id="g5750"><g
           id="g562"
           transform="matrix(0.41688251,0,0,0.41688251,-148.47606,-4.5632172)"><g
             id="g564"
             clip-path="url(#clipPath566)"><path
               d="m 321.24985,222.32985 3.3679,2.65024 3.13787,2.74904 2.91971,2.83542 2.92916,3.1569 2.69764,3.23423 2.47678,3.30161 2.43109,3.62106 2.19623,3.67989 1.9704,3.73058 1.75242,3.7741 1.64339,4.0848 1.40804,4.12053 1.17864,4.14996 0.95412,4.17367 0.73347,4.19207 0.51577,4.2055 0.30012,4.21418 0.0856,4.21825 -0.12848,4.2178 -0.34313,4.21281 -0.55912,4.2032 -0.77734,4.1888 -0.99868,4.16937 -1.22409,4.14455 -1.4546,4.1139 -1.69127,4.07684 -1.79852,3.76534 -2.0181,3.72034 -2.24575,3.66801 -2.48273,3.60729 -2.52686,3.28687 -2.75008,3.21732 -2.98424,3.13748 -2.97321,2.81488 -3.1942,2.72558 -2.54799,1.97789 0,0"
               style="fill:none;stroke:#000000;stroke-width:2.39875746;stroke-linecap:square;stroke-linejoin:round;stroke-miterlimit:10;stroke-opacity:0.25;stroke-dasharray:none"
               id="path570"
               inkscape:connector-curvature="0" /></g></g><g
           id="g572"
           transform="matrix(0.41688251,0,0,0.41688251,-148.47606,-4.5632172)"><g
             id="g574"
             clip-path="url(#clipPath576)"><path
               d="m 369.32503,172.92398 4.25106,8.16115 3.64759,7.47058 3.33864,7.32233 3.04529,7.19563 2.76579,7.08711 2.49847,6.9941 2.24189,6.91445 1.99466,6.84638 1.75555,6.7885 1.52342,6.73962 1.29723,6.69885 1.076,6.66542 0.85881,6.63875 0.64483,6.61837 0.4332,6.60396 0.22317,6.59525 0.0139,6.59213 -0.19523,6.59451 -0.40513,6.60247 -0.61649,6.61612 -0.83011,6.63568 -1.04683,6.66148 -1.26746,6.69398 -1.49294,6.73374 -1.72422,6.78148 -1.96234,6.8381 -2.20841,6.90474 -2.46368,6.98275 -2.72947,7.07387 -3.00726,7.18017 -3.29867,7.30427 -3.60543,7.44943 -3.92944,7.61973 -0.82642,1.54694 0,0"
               style="fill:none;stroke:#000000;stroke-width:2.39875746;stroke-linecap:square;stroke-linejoin:round;stroke-miterlimit:10;stroke-opacity:0.25;stroke-dasharray:none"
               id="path580"
               inkscape:connector-curvature="0" /></g></g><g
           id="g582"
           transform="matrix(0.41688251,0,0,0.41688251,-148.47606,-4.5632172)"><g
             id="g584"
             clip-path="url(#clipPath586)"><path
               d="m 427.57999,145.11897 4.13843,15.82687 3.30548,13.48349 2.84781,12.54307 2.42633,11.69333 2.04351,10.91514 1.78731,10.7559 1.45655,10.06665 1.22641,9.96766 0.99668,9.88762 0.76746,9.82537 0.53873,9.77997 0.31041,9.75079 0.0823,9.73736 -0.14568,9.73952 -0.3738,9.75729 -0.60222,9.79094 -0.83108,9.84093 -1.06044,9.90803 -1.29031,9.9932 -1.52052,10.09771 -1.8548,10.79516 -2.11075,10.96171 -2.49648,11.75109 -2.92015,12.61445 -3.37872,13.57153 -3.3425,12.70728 0,0"
               style="fill:none;stroke:#000000;stroke-width:2.39875746;stroke-linecap:square;stroke-linejoin:round;stroke-miterlimit:10;stroke-opacity:0.25;stroke-dasharray:none"
               id="path590"
               inkscape:connector-curvature="0" /></g></g><g
           id="g592"
           transform="matrix(0.41688251,0,0,0.41688251,-148.47606,-4.5632172)"><g
             id="g594"
             clip-path="url(#clipPath596)"><path
               d="m 493.70471,129.19661 3.61153,27.69983 2.433,20.35487 1.86013,17.38253 1.48168,15.85489 1.18867,15.04196 0.91379,14.28359 0.68592,14.18515 0.45299,14.11601 0.21241,13.46419 -0.005,13.4523 -0.22226,13.46532 -0.43819,13.50332 -0.68592,14.18515 -0.91379,14.28359 -1.18867,15.04196 -1.48168,15.85489 -1.78672,16.73335 -2.25841,19.01365 -3.0355,23.52614 -0.82403,6.16409 0,0"
               style="fill:none;stroke:#000000;stroke-width:2.39875746;stroke-linecap:square;stroke-linejoin:round;stroke-miterlimit:10;stroke-opacity:0.25;stroke-dasharray:none"
               id="path600"
               inkscape:connector-curvature="0" /></g></g><g
           id="g602"
           transform="matrix(0.41688251,0,0,0.41688251,-148.47606,-4.5632172)"><g
             id="g604"
             clip-path="url(#clipPath606)"><path
               d="m 562.19394,120.92868 2.76045,42.75359 1.51845,27.01775 1.05985,22.68514 0.77062,21.16748 0.51654,20.38305 0.27235,19.65347 0.0447,18.97066 -0.17109,18.98178 -0.4003,19.68829 -0.64271,20.44359 -0.89086,21.25547 -1.20968,23.48045 -1.67245,27.88848 -1.95589,29.77344 0,0"
               style="fill:none;stroke:#000000;stroke-width:2.39875746;stroke-linecap:square;stroke-linejoin:round;stroke-miterlimit:10;stroke-opacity:0.25;stroke-dasharray:none"
               id="path610"
               inkscape:connector-curvature="0" /></g></g><g
           id="g612"
           transform="matrix(0.41688251,0,0,0.41688251,-148.47606,-4.5632172)"><g
             id="g614"
             clip-path="url(#clipPath616)"><path
               d="m 602.58871,118.1476 2.21875,52.01501 1.11072,31.389 0.73441,27.05308 0.45387,24.88229 0.2153,24.13271 -0.0126,23.43993 -0.23093,23.46715 -0.47231,24.89122 -0.73057,26.38837 -1.04122,29.34493 -1.56148,37.32334 -0.68397,15.37777 0,0"
               style="fill:none;stroke:#000000;stroke-width:2.39875746;stroke-linecap:square;stroke-linejoin:round;stroke-miterlimit:10;stroke-opacity:0.25;stroke-dasharray:none"
               id="path620"
               inkscape:connector-curvature="0" /></g></g><g
           id="g622"
           transform="matrix(0.41688251,0,0,0.41688251,-148.47606,-4.5632172)"><g
             id="g624"
             clip-path="url(#clipPath626)"><path
               d="m 631.3051,116.75424 1.87428,59.11405 0.86286,34.31092 0.53559,29.98926 0.27879,27.83495 0.0523,27.11281 -0.16732,27.12788 -0.4027,28.56258 -0.66362,30.76134 -1.00768,35.83762 -1.36255,41.84011 0,0"
               style="fill:none;stroke:#000000;stroke-width:2.39875746;stroke-linecap:square;stroke-linejoin:round;stroke-miterlimit:10;stroke-opacity:0.25;stroke-dasharray:none"
               id="path630"
               inkscape:connector-curvature="0" /></g></g><g
           id="g632"
           transform="matrix(0.41688251,0,0,0.41688251,-148.47606,-4.5632172)"
           style="stroke:#000000;stroke-width:1.91900587;stroke-miterlimit:4;stroke-opacity:1;stroke-dasharray:none"><g
             id="g634"
             clip-path="url(#clipPath636)"
             style="stroke:#000000;stroke-width:1.91900587;stroke-miterlimit:4;stroke-opacity:1;stroke-dasharray:none"><path
               d="m 643.06979,116.28947 1.73914,61.95534 0.77917,35.75541 0.4663,31.43856 0.21566,29.2914 -0.008,28.58154 -0.23112,29.29582 -0.46843,30.76266 -0.7538,34.38499 -1.19941,43.74338 -0.53973,18.21196 0,0"
               style="fill:none;stroke:#000000;stroke-width:1.91900587;stroke-linecap:square;stroke-linejoin:round;stroke-miterlimit:4;stroke-opacity:1;stroke-dasharray:none"
               id="path640"
               inkscape:connector-curvature="0" /></g></g><g
           id="g642"
           transform="matrix(0.41688251,0,0,0.41688251,-148.47606,-4.5632172)"
           style="stroke:#000000;stroke-width:1.91900587;stroke-miterlimit:4;stroke-opacity:1;stroke-dasharray:none"><g
             id="g644"
             clip-path="url(#clipPath646)"
             style="stroke:#000000;stroke-width:1.91900587;stroke-miterlimit:4;stroke-opacity:1;stroke-dasharray:none"><path
               d="m 302.86184,288 0.18042,-6.70636 0.53736,-6.65835 0.88298,-6.56434 1.21055,-6.42821 1.51455,-6.25523 1.79092,-6.05166 2.03702,-5.82419 2.25172,-5.57951 2.43507,-5.32387 2.5882,-5.06288 2.71293,-4.80133 2.81159,-4.54316 2.8868,-4.29141 2.94123,-4.04837 2.97756,-3.81563 2.99827,-3.59423 3.00574,-3.38475 3.00205,-3.18734 5.95749,-5.8303 5.85137,-5.18046 5.70922,-4.6146 5.54534,-4.12321 5.36991,-3.69673 5.18989,-3.32618 5.01004,-3.00358 7.18562,-3.98852 6.80746,-3.46756 6.45269,-3.03686 6.12284,-2.67795 7.6932,-3.11 7.20565,-2.67946 8.39693,-2.86555 7.79802,-2.43707 8.66865,-2.48053 9.29407,-2.41816 9.70424,-2.28545 9.93522,-2.11269 10.97408,-2.09501 11.61764,-1.97528 11.94391,-1.80077 12.6957,-1.68903 13.62464,-1.58667 14.5425,-1.46931 15.75329,-1.36667 17.29292,-1.27096 18.71929,-1.1486 20.76109,-1.04554 19.62008,-0.80701 0,0"
               style="fill:none;stroke:#000000;stroke-width:1.91900587;stroke-linecap:square;stroke-linejoin:round;stroke-miterlimit:4;stroke-opacity:1;stroke-dasharray:none"
               id="path650"
               inkscape:connector-curvature="0" /></g></g><g
           id="g652"
           transform="matrix(0.41688251,0,0,0.41688251,-148.47606,-4.5632172)"><g
             id="g654"
             clip-path="url(#clipPath656)"><path
               d="m 302.86184,288 3.0896,-5.64038 3.22935,-5.29475 3.33231,-4.95829 3.40325,-4.63516 3.44687,-4.32814 3.46757,-4.03888 3.46936,-3.76813 3.45575,-3.51594 3.42979,-3.28196 3.39409,-3.06543 6.65263,-5.54647 6.44084,-4.86539 6.20841,-4.28703 5.96848,-3.79538 5.72937,-3.37629 5.49623,-3.01772 7.82734,-3.96233 7.3595,-3.40391 6.93004,-2.95058 6.53798,-2.57876 8.16733,-2.96827 7.60635,-2.53508 8.81657,-2.689 9.70414,-2.68129 8.88906,-2.22633 9.4991,-2.16115 9.88885,-2.0346 11.16083,-2.06055 11.96343,-1.9622 12.3858,-1.79452 13.25431,-1.68626 14.28736,-1.58159 15.27595,-1.45701 16.55019,-1.34524 17.75463,-1.21496 19.64171,-1.11456 21.68278,-1.00064 24.25813,-0.88991 2.19053,-0.0702 0,0"
               style="fill:none;stroke:#000000;stroke-width:2.39875746;stroke-linecap:square;stroke-linejoin:round;stroke-miterlimit:10;stroke-opacity:0.25;stroke-dasharray:none"
               id="path660"
               inkscape:connector-curvature="0" /></g></g><g
           id="g662"
           transform="matrix(0.41688251,0,0,0.41688251,-148.47606,-4.5632172)"><g
             id="g664"
             clip-path="url(#clipPath666)"><path
               d="m 302.86184,288 5.11685,-3.1902 4.93803,-2.88499 4.76342,-2.61823 9.0273,-4.5628 8.40855,-3.83248 7.8487,-3.2573 7.34526,-2.7981 6.89334,-2.42672 9.59178,-3.08706 8.81005,-2.56813 8.13757,-2.16776 9.95681,-2.41202 11.24323,-2.4391 10.14085,-1.96951 10.98018,-1.91345 11.47718,-1.78337 13.07698,-1.79373 13.98398,-1.67261 14.36241,-1.48883 15.25876,-1.36266 17.05075,-1.29474 18.37329,-1.16814 20.20499,-1.05902 22.64931,-0.95825 25.30004,-0.84244 29.03864,-0.73739 19.03343,-0.37927 0,0"
               style="fill:none;stroke:#000000;stroke-width:2.39875746;stroke-linecap:square;stroke-linejoin:round;stroke-miterlimit:10;stroke-opacity:0.25;stroke-dasharray:none"
               id="path670"
               inkscape:connector-curvature="0" /></g></g><g
           id="g672"
           transform="matrix(0.41688251,0,0,0.41688251,-148.47606,-4.5632172)"
           style="stroke:#0000ff;stroke-width:3.83801174;stroke-miterlimit:4;stroke-opacity:1;stroke-dasharray:none"><g
             id="g674"
             clip-path="url(#clipPath676)"
             style="stroke:#0000ff;stroke-width:3.83801174;stroke-miterlimit:4;stroke-opacity:1;stroke-dasharray:none"><path
               d="m 302.86184,288 343.43172,0 0,0"
               style="fill:none;stroke:#0000ff;stroke-width:3.83801174;stroke-linecap:square;stroke-linejoin:round;stroke-miterlimit:4;stroke-opacity:1;stroke-dasharray:none"
               id="path680"
               inkscape:connector-curvature="0" /></g></g><g
           id="g682"
           transform="matrix(0.41688251,0,0,0.41688251,-148.47606,-4.5632172)"><g
             id="g684"
             clip-path="url(#clipPath686)"><path
               d="m 302.86184,288 5.11685,3.1902 4.93803,2.88499 4.76342,2.61823 9.0273,4.5628 8.40855,3.83248 7.8487,3.2573 7.34526,2.7981 6.89334,2.42672 9.59178,3.08706 8.81005,2.56813 8.13757,2.16776 9.95681,2.41202 11.24323,2.4391 10.14085,1.96951 10.98018,1.91345 11.47718,1.78337 13.07698,1.79373 13.98398,1.67261 14.36241,1.48883 15.25876,1.36266 17.05075,1.29474 18.37329,1.16814 20.20499,1.05902 22.64931,0.95825 25.30004,0.84244 29.03864,0.73739 19.03343,0.37927 0,0"
               style="fill:none;stroke:#000000;stroke-width:2.39875746;stroke-linecap:square;stroke-linejoin:round;stroke-miterlimit:10;stroke-opacity:0.25;stroke-dasharray:none"
               id="path690"
               inkscape:connector-curvature="0" /></g></g><g
           id="g692"
           transform="matrix(0.41688251,0,0,0.41688251,-148.47606,-4.5632172)"><g
             id="g694"
             clip-path="url(#clipPath696)"><path
               d="m 302.86184,288 3.0896,5.64038 3.22935,5.29475 3.33231,4.95829 3.40325,4.63516 3.44687,4.32814 3.46757,4.03888 3.46936,3.76813 3.45575,3.51594 3.42979,3.28196 3.39409,3.06543 6.65263,5.54647 6.44084,4.86539 6.20841,4.28703 5.96848,3.79538 5.72937,3.37629 5.49623,3.01772 7.82734,3.96233 7.3595,3.40391 6.93004,2.95058 6.53798,2.57876 8.16733,2.96827 7.60635,2.53508 8.81657,2.689 9.70414,2.68129 8.88906,2.22633 9.4991,2.16115 9.88885,2.0346 11.16083,2.06055 11.96343,1.9622 12.3858,1.79452 13.25431,1.68626 14.28736,1.58159 15.27595,1.45701 16.55019,1.34524 17.75463,1.21496 19.64171,1.11456 21.68278,1.00064 24.25813,0.88991 2.19053,0.0702 0,0"
               style="fill:none;stroke:#000000;stroke-width:2.39875746;stroke-linecap:square;stroke-linejoin:round;stroke-miterlimit:10;stroke-opacity:0.25;stroke-dasharray:none"
               id="path700"
               inkscape:connector-curvature="0" /></g></g><g
           id="g702"
           transform="matrix(0.41688251,0,0,0.41688251,-148.47606,-4.5632172)"
           style="stroke:#000000;stroke-width:1.91900587;stroke-miterlimit:4;stroke-opacity:1;stroke-dasharray:none"><g
             id="g704"
             clip-path="url(#clipPath706)"
             style="stroke:#000000;stroke-width:1.91900587;stroke-miterlimit:4;stroke-opacity:1;stroke-dasharray:none"><path
               d="m 302.86184,288 0.18042,6.70636 0.53736,6.65835 0.88298,6.56434 1.21055,6.42821 1.51455,6.25523 1.79092,6.05166 2.03702,5.82419 2.25172,5.57951 2.43507,5.32387 2.5882,5.06288 2.71293,4.80133 2.81159,4.54316 2.8868,4.29141 2.94123,4.04837 2.97756,3.81563 2.99827,3.59423 3.00574,3.38475 3.00205,3.18734 5.95749,5.8303 5.85137,5.18046 5.70922,4.6146 5.54534,4.12321 5.36991,3.69673 5.18989,3.32618 5.01004,3.00358 7.18562,3.98852 6.80746,3.46756 6.45269,3.03686 6.12284,2.67795 7.6932,3.11 7.20565,2.67946 8.39693,2.86555 7.79802,2.43707 8.66865,2.48053 9.29407,2.41816 9.70424,2.28545 9.93522,2.11269 10.97408,2.09501 11.61764,1.97528 11.94391,1.80077 12.6957,1.68903 13.62464,1.58667 14.5425,1.46931 15.75329,1.36667 17.29292,1.27096 18.71929,1.1486 20.76109,1.04554 19.62008,0.80701 0,0"
               style="fill:none;stroke:#000000;stroke-width:1.91900587;stroke-linecap:square;stroke-linejoin:round;stroke-miterlimit:4;stroke-opacity:1;stroke-dasharray:none"
               id="path710"
               inkscape:connector-curvature="0" /></g></g></g></g></g></svg>