<?xml version="1.0" encoding="UTF-8" standalone="no"?>
<!-- Created with Inkscape (http://www.inkscape.org/) -->

<svg
   xmlns:dc="http://purl.org/dc/elements/1.1/"
   xmlns:cc="http://creativecommons.org/ns#"
   xmlns:rdf="http://www.w3.org/1999/02/22-rdf-syntax-ns#"
   xmlns:svg="http://www.w3.org/2000/svg"
   xmlns="http://www.w3.org/2000/svg"
   xmlns:sodipodi="http://sodipodi.sourceforge.net/DTD/sodipodi-0.dtd"
   xmlns:inkscape="http://www.inkscape.org/namespaces/inkscape"
   id="svg2"
   version="1.1"
   inkscape:version="0.48.2 r9819"
   width="900"
   height="720"
   xml:space="preserve"
   sodipodi:docname="fig-circles.pdf"><metadata
     id="metadata8"><rdf:RDF><cc:Work
         rdf:about=""><dc:format>image/svg+xml</dc:format><dc:type
           rdf:resource="http://purl.org/dc/dcmitype/StillImage" /><dc:title></dc:title></cc:Work></rdf:RDF></metadata><defs
     id="defs6"><clipPath
       clipPathUnits="userSpaceOnUse"
       id="clipPath20"><path
         d="m 90,114.57237 175.14474,0 0,346.85526 -175.14474,0 0,-346.85526 z"
         id="path22" /></clipPath><clipPath
       clipPathUnits="userSpaceOnUse"
       id="clipPath30"><path
         d="m 90,114.57237 175.14474,0 0,346.85526 -175.14474,0 0,-346.85526 z"
         id="path32" /></clipPath><clipPath
       clipPathUnits="userSpaceOnUse"
       id="clipPath40"><path
         d="m 90,114.57237 175.14474,0 0,346.85526 -175.14474,0 0,-346.85526 z"
         id="path42" /></clipPath><clipPath
       clipPathUnits="userSpaceOnUse"
       id="clipPath50"><path
         d="m 90,114.57237 175.14474,0 0,346.85526 -175.14474,0 0,-346.85526 z"
         id="path52" /></clipPath><clipPath
       clipPathUnits="userSpaceOnUse"
       id="clipPath60"><path
         d="m 90,114.57237 175.14474,0 0,346.85526 -175.14474,0 0,-346.85526 z"
         id="path62" /></clipPath><clipPath
       clipPathUnits="userSpaceOnUse"
       id="clipPath70"><path
         d="m 90,114.57237 175.14474,0 0,346.85526 -175.14474,0 0,-346.85526 z"
         id="path72" /></clipPath><clipPath
       clipPathUnits="userSpaceOnUse"
       id="clipPath80"><path
         d="m 90,114.57237 175.14474,0 0,346.85526 -175.14474,0 0,-346.85526 z"
         id="path82" /></clipPath><clipPath
       clipPathUnits="userSpaceOnUse"
       id="clipPath90"><path
         d="m 90,114.57237 175.14474,0 0,346.85526 -175.14474,0 0,-346.85526 z"
         id="path92" /></clipPath><clipPath
       clipPathUnits="userSpaceOnUse"
       id="clipPath100"><path
         d="m 90,114.57237 175.14474,0 0,346.85526 -175.14474,0 0,-346.85526 z"
         id="path102" /></clipPath><clipPath
       clipPathUnits="userSpaceOnUse"
       id="clipPath110"><path
         d="m 90,114.57237 175.14474,0 0,346.85526 -175.14474,0 0,-346.85526 z"
         id="path112" /></clipPath><clipPath
       clipPathUnits="userSpaceOnUse"
       id="clipPath120"><path
         d="m 90,114.57237 175.14474,0 0,346.85526 -175.14474,0 0,-346.85526 z"
         id="path122" /></clipPath><clipPath
       clipPathUnits="userSpaceOnUse"
       id="clipPath130"><path
         d="m 90,114.57237 175.14474,0 0,346.85526 -175.14474,0 0,-346.85526 z"
         id="path132" /></clipPath><clipPath
       clipPathUnits="userSpaceOnUse"
       id="clipPath140"><path
         d="m 90,114.57237 175.14474,0 0,346.85526 -175.14474,0 0,-346.85526 z"
         id="path142" /></clipPath><clipPath
       clipPathUnits="userSpaceOnUse"
       id="clipPath150"><path
         d="m 90,114.57237 175.14474,0 0,346.85526 -175.14474,0 0,-346.85526 z"
         id="path152" /></clipPath><clipPath
       clipPathUnits="userSpaceOnUse"
       id="clipPath160"><path
         d="m 90,114.57237 175.14474,0 0,346.85526 -175.14474,0 0,-346.85526 z"
         id="path162" /></clipPath><clipPath
       clipPathUnits="userSpaceOnUse"
       id="clipPath170"><path
         d="m 90,114.57237 175.14474,0 0,346.85526 -175.14474,0 0,-346.85526 z"
         id="path172" /></clipPath><clipPath
       clipPathUnits="userSpaceOnUse"
       id="clipPath180"><path
         d="m 90,114.57237 175.14474,0 0,346.85526 -175.14474,0 0,-346.85526 z"
         id="path182" /></clipPath><clipPath
       clipPathUnits="userSpaceOnUse"
       id="clipPath190"><path
         d="m 90,114.57237 175.14474,0 0,346.85526 -175.14474,0 0,-346.85526 z"
         id="path192" /></clipPath><clipPath
       clipPathUnits="userSpaceOnUse"
       id="clipPath200"><path
         d="m 90,114.57237 175.14474,0 0,346.85526 -175.14474,0 0,-346.85526 z"
         id="path202" /></clipPath><clipPath
       clipPathUnits="userSpaceOnUse"
       id="clipPath210"><path
         d="m 90,114.57237 175.14474,0 0,346.85526 -175.14474,0 0,-346.85526 z"
         id="path212" /></clipPath><clipPath
       clipPathUnits="userSpaceOnUse"
       id="clipPath220"><path
         d="m 90,114.57237 175.14474,0 0,346.85526 -175.14474,0 0,-346.85526 z"
         id="path222" /></clipPath><clipPath
       clipPathUnits="userSpaceOnUse"
       id="clipPath230"><path
         d="m 90,114.57237 175.14474,0 0,346.85526 -175.14474,0 0,-346.85526 z"
         id="path232" /></clipPath><clipPath
       clipPathUnits="userSpaceOnUse"
       id="clipPath240"><path
         d="m 90,114.57237 175.14474,0 0,346.85526 -175.14474,0 0,-346.85526 z"
         id="path242" /></clipPath><clipPath
       clipPathUnits="userSpaceOnUse"
       id="clipPath250"><path
         d="m 90,114.57237 175.14474,0 0,346.85526 -175.14474,0 0,-346.85526 z"
         id="path252" /></clipPath><clipPath
       clipPathUnits="userSpaceOnUse"
       id="clipPath260"><path
         d="m 90,114.57237 175.14474,0 0,346.85526 -175.14474,0 0,-346.85526 z"
         id="path262" /></clipPath><clipPath
       clipPathUnits="userSpaceOnUse"
       id="clipPath270"><path
         d="m 90,114.57237 175.14474,0 0,346.85526 -175.14474,0 0,-346.85526 z"
         id="path272" /></clipPath><clipPath
       clipPathUnits="userSpaceOnUse"
       id="clipPath280"><path
         d="m 90,114.57237 175.14474,0 0,346.85526 -175.14474,0 0,-346.85526 z"
         id="path282" /></clipPath><clipPath
       clipPathUnits="userSpaceOnUse"
       id="clipPath290"><path
         d="m 90,114.57237 175.14474,0 0,346.85526 -175.14474,0 0,-346.85526 z"
         id="path292" /></clipPath><clipPath
       clipPathUnits="userSpaceOnUse"
       id="clipPath300"><path
         d="m 90,114.57237 175.14474,0 0,346.85526 -175.14474,0 0,-346.85526 z"
         id="path302" /></clipPath><clipPath
       clipPathUnits="userSpaceOnUse"
       id="clipPath310"><path
         d="m 90,114.57237 175.14474,0 0,346.85526 -175.14474,0 0,-346.85526 z"
         id="path312" /></clipPath><clipPath
       clipPathUnits="userSpaceOnUse"
       id="clipPath320"><path
         d="m 90,114.57237 175.14474,0 0,346.85526 -175.14474,0 0,-346.85526 z"
         id="path322" /></clipPath><clipPath
       clipPathUnits="userSpaceOnUse"
       id="clipPath330"><path
         d="m 90,114.57237 175.14474,0 0,346.85526 -175.14474,0 0,-346.85526 z"
         id="path332" /></clipPath><clipPath
       clipPathUnits="userSpaceOnUse"
       id="clipPath340"><path
         d="m 90,114.57237 175.14474,0 0,346.85526 -175.14474,0 0,-346.85526 z"
         id="path342" /></clipPath><clipPath
       clipPathUnits="userSpaceOnUse"
       id="clipPath350"><path
         d="m 90,114.57237 175.14474,0 0,346.85526 -175.14474,0 0,-346.85526 z"
         id="path352" /></clipPath><clipPath
       clipPathUnits="userSpaceOnUse"
       id="clipPath360"><path
         d="m 90,114.57237 175.14474,0 0,346.85526 -175.14474,0 0,-346.85526 z"
         id="path362" /></clipPath><clipPath
       clipPathUnits="userSpaceOnUse"
       id="clipPath370"><path
         d="m 90,114.57237 175.14474,0 0,346.85526 -175.14474,0 0,-346.85526 z"
         id="path372" /></clipPath><clipPath
       clipPathUnits="userSpaceOnUse"
       id="clipPath436"><path
         d="m -970,-443 2970,0 0,1466 -2970,0 0,-1466 z"
         id="path438" /></clipPath><clipPath
       clipPathUnits="userSpaceOnUse"
       id="clipPath454"><path
         d="m -970,-443 2970,0 0,1466 -2970,0 0,-1466 z"
         id="path456" /></clipPath><clipPath
       clipPathUnits="userSpaceOnUse"
       id="clipPath466"><path
         d="m 301.14474,114.57237 346.85526,0 0,346.85526 -346.85526,0 0,-346.85526 z"
         id="path468" /></clipPath><clipPath
       clipPathUnits="userSpaceOnUse"
       id="clipPath476"><path
         d="m 301.14474,114.57237 346.85526,0 0,346.85526 -346.85526,0 0,-346.85526 z"
         id="path478" /></clipPath><clipPath
       clipPathUnits="userSpaceOnUse"
       id="clipPath486"><path
         d="m 301.14474,114.57237 346.85526,0 0,346.85526 -346.85526,0 0,-346.85526 z"
         id="path488" /></clipPath><clipPath
       clipPathUnits="userSpaceOnUse"
       id="clipPath496"><path
         d="m 301.14474,114.57237 346.85526,0 0,346.85526 -346.85526,0 0,-346.85526 z"
         id="path498" /></clipPath><clipPath
       clipPathUnits="userSpaceOnUse"
       id="clipPath506"><path
         d="m 301.14474,114.57237 346.85526,0 0,346.85526 -346.85526,0 0,-346.85526 z"
         id="path508" /></clipPath><clipPath
       clipPathUnits="userSpaceOnUse"
       id="clipPath516"><path
         d="m 301.14474,114.57237 346.85526,0 0,346.85526 -346.85526,0 0,-346.85526 z"
         id="path518" /></clipPath><clipPath
       clipPathUnits="userSpaceOnUse"
       id="clipPath526"><path
         d="m 301.14474,114.57237 346.85526,0 0,346.85526 -346.85526,0 0,-346.85526 z"
         id="path528" /></clipPath><clipPath
       clipPathUnits="userSpaceOnUse"
       id="clipPath536"><path
         d="m 301.14474,114.57237 346.85526,0 0,346.85526 -346.85526,0 0,-346.85526 z"
         id="path538" /></clipPath><clipPath
       clipPathUnits="userSpaceOnUse"
       id="clipPath546"><path
         d="m 301.14474,114.57237 346.85526,0 0,346.85526 -346.85526,0 0,-346.85526 z"
         id="path548" /></clipPath><clipPath
       clipPathUnits="userSpaceOnUse"
       id="clipPath556"><path
         d="m 301.14474,114.57237 346.85526,0 0,346.85526 -346.85526,0 0,-346.85526 z"
         id="path558" /></clipPath><clipPath
       clipPathUnits="userSpaceOnUse"
       id="clipPath566"><path
         d="m 301.14474,114.57237 346.85526,0 0,346.85526 -346.85526,0 0,-346.85526 z"
         id="path568" /></clipPath><clipPath
       clipPathUnits="userSpaceOnUse"
       id="clipPath576"><path
         d="m 301.14474,114.57237 346.85526,0 0,346.85526 -346.85526,0 0,-346.85526 z"
         id="path578" /></clipPath><clipPath
       clipPathUnits="userSpaceOnUse"
       id="clipPath586"><path
         d="m 301.14474,114.57237 346.85526,0 0,346.85526 -346.85526,0 0,-346.85526 z"
         id="path588" /></clipPath><clipPath
       clipPathUnits="userSpaceOnUse"
       id="clipPath596"><path
         d="m 301.14474,114.57237 346.85526,0 0,346.85526 -346.85526,0 0,-346.85526 z"
         id="path598" /></clipPath><clipPath
       clipPathUnits="userSpaceOnUse"
       id="clipPath606"><path
         d="m 301.14474,114.57237 346.85526,0 0,346.85526 -346.85526,0 0,-346.85526 z"
         id="path608" /></clipPath><clipPath
       clipPathUnits="userSpaceOnUse"
       id="clipPath616"><path
         d="m 301.14474,114.57237 346.85526,0 0,346.85526 -346.85526,0 0,-346.85526 z"
         id="path618" /></clipPath><clipPath
       clipPathUnits="userSpaceOnUse"
       id="clipPath626"><path
         d="m 301.14474,114.57237 346.85526,0 0,346.85526 -346.85526,0 0,-346.85526 z"
         id="path628" /></clipPath><clipPath
       clipPathUnits="userSpaceOnUse"
       id="clipPath636"><path
         d="m 301.14474,114.57237 346.85526,0 0,346.85526 -346.85526,0 0,-346.85526 z"
         id="path638" /></clipPath><clipPath
       clipPathUnits="userSpaceOnUse"
       id="clipPath646"><path
         d="m 301.14474,114.57237 346.85526,0 0,346.85526 -346.85526,0 0,-346.85526 z"
         id="path648" /></clipPath><clipPath
       clipPathUnits="userSpaceOnUse"
       id="clipPath656"><path
         d="m 301.14474,114.57237 346.85526,0 0,346.85526 -346.85526,0 0,-346.85526 z"
         id="path658" /></clipPath><clipPath
       clipPathUnits="userSpaceOnUse"
       id="clipPath666"><path
         d="m 301.14474,114.57237 346.85526,0 0,346.85526 -346.85526,0 0,-346.85526 z"
         id="path668" /></clipPath><clipPath
       clipPathUnits="userSpaceOnUse"
       id="clipPath676"><path
         d="m 301.14474,114.57237 346.85526,0 0,346.85526 -346.85526,0 0,-346.85526 z"
         id="path678" /></clipPath><clipPath
       clipPathUnits="userSpaceOnUse"
       id="clipPath686"><path
         d="m 301.14474,114.57237 346.85526,0 0,346.85526 -346.85526,0 0,-346.85526 z"
         id="path688" /></clipPath><clipPath
       clipPathUnits="userSpaceOnUse"
       id="clipPath696"><path
         d="m 301.14474,114.57237 346.85526,0 0,346.85526 -346.85526,0 0,-346.85526 z"
         id="path698" /></clipPath><clipPath
       clipPathUnits="userSpaceOnUse"
       id="clipPath706"><path
         d="m 301.14474,114.57237 346.85526,0 0,346.85526 -346.85526,0 0,-346.85526 z"
         id="path708" /></clipPath><clipPath
       clipPathUnits="userSpaceOnUse"
       id="clipPath716"><path
         d="m 301.14474,114.57237 346.85526,0 0,346.85526 -346.85526,0 0,-346.85526 z"
         id="path718" /></clipPath><clipPath
       clipPathUnits="userSpaceOnUse"
       id="clipPath726"><path
         d="m 301.14474,114.57237 346.85526,0 0,346.85526 -346.85526,0 0,-346.85526 z"
         id="path728" /></clipPath><clipPath
       clipPathUnits="userSpaceOnUse"
       id="clipPath736"><path
         d="m 301.14474,114.57237 346.85526,0 0,346.85526 -346.85526,0 0,-346.85526 z"
         id="path738" /></clipPath><clipPath
       clipPathUnits="userSpaceOnUse"
       id="clipPath746"><path
         d="m 301.14474,114.57237 346.85526,0 0,346.85526 -346.85526,0 0,-346.85526 z"
         id="path748" /></clipPath><clipPath
       clipPathUnits="userSpaceOnUse"
       id="clipPath756"><path
         d="m 301.14474,114.57237 346.85526,0 0,346.85526 -346.85526,0 0,-346.85526 z"
         id="path758" /></clipPath><clipPath
       clipPathUnits="userSpaceOnUse"
       id="clipPath766"><path
         d="m 301.14474,114.57237 346.85526,0 0,346.85526 -346.85526,0 0,-346.85526 z"
         id="path768" /></clipPath><clipPath
       clipPathUnits="userSpaceOnUse"
       id="clipPath776"><path
         d="m 301.14474,114.57237 346.85526,0 0,346.85526 -346.85526,0 0,-346.85526 z"
         id="path778" /></clipPath><clipPath
       clipPathUnits="userSpaceOnUse"
       id="clipPath786"><path
         d="m 301.14474,114.57237 346.85526,0 0,346.85526 -346.85526,0 0,-346.85526 z"
         id="path788" /></clipPath><clipPath
       clipPathUnits="userSpaceOnUse"
       id="clipPath796"><path
         d="m 301.14474,114.57237 346.85526,0 0,346.85526 -346.85526,0 0,-346.85526 z"
         id="path798" /></clipPath><clipPath
       clipPathUnits="userSpaceOnUse"
       id="clipPath806"><path
         d="m 301.14474,114.57237 346.85526,0 0,346.85526 -346.85526,0 0,-346.85526 z"
         id="path808" /></clipPath><clipPath
       clipPathUnits="userSpaceOnUse"
       id="clipPath892"><path
         d="m -970,-443 2970,0 0,1466 -2970,0 0,-1466 z"
         id="path894" /></clipPath><clipPath
       clipPathUnits="userSpaceOnUse"
       id="clipPath910"><path
         d="m -970,-443 2970,0 0,1466 -2970,0 0,-1466 z"
         id="path912" /></clipPath></defs><sodipodi:namedview
     pagecolor="#ffffff"
     bordercolor="#666666"
     borderopacity="1"
     objecttolerance="10"
     gridtolerance="10"
     guidetolerance="10"
     inkscape:pageopacity="0"
     inkscape:pageshadow="2"
     inkscape:window-width="1187"
     inkscape:window-height="891"
     id="namedview4"
     showgrid="false"
     inkscape:zoom="1.0125"
     inkscape:cx="450"
     inkscape:cy="360"
     inkscape:window-x="0"
     inkscape:window-y="0"
     inkscape:window-maximized="0"
     inkscape:current-layer="g10" /><g
     id="g10"
     inkscape:groupmode="layer"
     inkscape:label="fig-circles"
     transform="matrix(1.25,0,0,-1.25,0,720)"><g
       id="g106" /><g
       id="g116"><g
         id="g118"
         clip-path="url(#clipPath120)"><path
           d="m 91.717105,288 0,0"
           style="fill:none;stroke:#000000;stroke-opacity:0.25;stroke-width:1;stroke-linecap:square;stroke-linejoin:round;stroke-miterlimit:10;stroke-dasharray:none"
           id="path124" /></g></g><g
       id="g126"><g
         id="g128"
         clip-path="url(#clipPath130)"><path
           d="m 91.717105,284.18421 0.904205,0.10868 0.852698,0.31985 0.752619,0.51279 0.609669,0.67654 0.431991,0.80174 0.229704,0.88126 0.01433,0.9106 -0.201854,0.88806 -0.406543,0.81494 -0.588074,0.69539 -0.736107,0.53623 -0.842209,0.34652 -0.900336,0.13709 -0.120097,0.002 0,0"
           style="fill:none;stroke:#000000;stroke-opacity:0.25;stroke-width:1;stroke-linecap:square;stroke-linejoin:round;stroke-miterlimit:10;stroke-dasharray:none"
           id="path134" /></g></g><g
       id="g136"><g
         id="g138"
         clip-path="url(#clipPath140)"><path
           d="m 91.717105,278.46053 1.435923,0.10869 1.403202,0.32359 1.338506,0.53112 1.243309,0.72655 1.119779,0.90542 0.970734,1.06365 0.799562,1.19766 0.61019,1.30437 0.40688,1.38135 0.19433,1.42686 -0.0227,1.43985 -0.23914,1.42003 -0.45017,1.36786 -0.650927,1.28452 -0.836866,1.1719 -1.00373,1.03257 -1.147721,0.86973 -1.26556,0.68706 -1.354559,0.48873 -1.412692,0.27927 -1.13839,0.0682 0,0"
           style="fill:none;stroke:#000000;stroke-opacity:0.25;stroke-width:1;stroke-linecap:square;stroke-linejoin:round;stroke-miterlimit:10;stroke-dasharray:none"
           id="path144" /></g></g><g
       id="g146"><g
         id="g148"
         clip-path="url(#clipPath150)"><path
           d="m 91.717105,268.92105 2.03809,0.10917 2.014765,0.32627 1.968383,0.53962 1.899477,0.7468 1.80883,0.94544 1.69749,1.13326 1.56671,1.3081 1.41801,1.46799 1.25308,1.61106 1.07381,1.7357 0.88225,1.84047 0.6806,1.9242 0.47115,1.98588 0.25632,2.02485 0.0386,2.04065 -0.17967,2.03309 -0.39582,2.00226 -0.60744,1.94852 -0.81212,1.87249 -1.00749,1.77501 -1.19134,1.65724 -1.36156,1.52048 -1.5162,1.36634 -1.65347,1.19656 -1.77184,1.01308 -1.869916,0.818 -1.946601,0.61358 -2.001006,0.40211 -2.032512,0.18607 -0.72053,0.0136 0,0"
           style="fill:none;stroke:#000000;stroke-opacity:0.25;stroke-width:1;stroke-linecap:square;stroke-linejoin:round;stroke-miterlimit:10;stroke-dasharray:none"
           id="path154" /></g></g><g
       id="g156"><g
         id="g158"
         clip-path="url(#clipPath160)"><path
           d="m 91.717105,249.84211 2.880062,0.10884 2.863631,0.32591 2.830862,0.54113 2.78195,0.75325 2.71715,0.96107 2.63687,1.16341 2.54153,1.35913 2.4317,1.54707 2.308,1.7262 2.17112,1.89547 2.02187,2.05394 1.86107,2.20069 1.68965,2.33488 1.50861,2.45574 1.31896,2.56261 1.12177,2.65485 0.91818,2.73195 0.70937,2.79346 0.49651,2.83903 0.2808,2.8684 0.0635,2.88142 -0.15416,2.87799 -0.37094,2.85815 -0.58561,2.82199 -0.79694,2.76975 -1.00372,2.70169 -1.20477,2.61823 -1.39896,2.51983 -1.58515,2.40705 -1.76231,2.28054 -1.92941,2.14102 -2.08551,1.98929 -2.2297,1.8262 -2.36118,1.6527 -2.47919,1.46978 -2.58305,1.27845 -2.67218,1.07985 -2.74606,0.87508 -2.804272,0.66531 -2.846492,0.45176 -2.87247,0.23563 -1.681091,0.037 0,0"
           style="fill:none;stroke:#000000;stroke-opacity:0.25;stroke-width:1;stroke-linecap:square;stroke-linejoin:round;stroke-miterlimit:10;stroke-dasharray:none"
           id="path164" /></g></g><g
       id="g166"><g
         id="g168"
         clip-path="url(#clipPath170)"><path
           d="m 91.717105,211.68421 4.321891,0.12248 4.308024,0.36703 4.28031,0.61042 4.23889,0.85184 4.18383,1.09053 4.11537,1.32571 4.03368,1.55665 3.93905,1.78258 3.83178,2.0028 3.71221,2.21658 3.58073,2.42325 3.43774,2.62215 3.28373,2.81263 3.11918,2.99407 2.94461,3.16591 2.7606,3.3276 2.56771,3.47858 2.3666,3.61842 2.15788,3.74664 1.94224,3.86283 1.72037,3.96662 1.49297,4.05768 1.26078,4.13572 1.02454,4.20048 0.78502,4.25177 0.54298,4.28939 0.29918,4.31326 0.0544,4.32329 -0.19048,4.31943 -0.43479,4.30171 -0.67771,4.27018 -0.91845,4.22495 -1.15624,4.16615 -1.39032,4.09399 -1.61994,4.00868 -1.84436,3.91051 -2.06286,3.79979 -2.27473,3.67686 -2.47931,3.54214 -2.67593,3.39605 -2.86396,3.23906 -3.04279,3.07167 -3.21187,2.89442 -3.37063,2.70788 -3.51857,2.51265 -3.65521,2.30935 -3.78014,2.09865 -3.89292,1.8812 -3.9932,1.65773 -4.08068,1.42892 -4.15505,1.19553 -4.21609,0.95831 -4.26359,0.718 -4.297412,0.4754 -4.317437,0.23126 -1.921666,0.0242 0,0"
           style="fill:none;stroke:#000000;stroke-opacity:0.25;stroke-width:1;stroke-linecap:square;stroke-linejoin:round;stroke-miterlimit:10;stroke-dasharray:none"
           id="path174" /></g></g><g
       id="g176"><g
         id="g178"
         clip-path="url(#clipPath180)"><path
           d="m 91.717105,173.52632 5.043273,0.11114 5.033482,0.33323 5.01391,0.55466 4.9846,0.77501 4.94563,0.99387 4.89703,1.21078 4.83894,1.42536 4.77144,1.63715 4.69469,1.84578 4.60881,2.05081 4.51398,2.25187 4.41039,2.44856 4.29823,2.64048 4.17773,2.82728 4.04912,3.00859 3.91264,3.18405 3.76856,3.35334 3.61717,3.51612 3.45874,3.67206 3.29362,3.82087 3.12208,3.96226 2.94449,4.09597 2.76118,4.22171 2.5725,4.33926 2.37883,4.44838 2.18055,4.54887 1.97802,4.64051 1.77166,4.72316 1.56186,4.79661 1.34902,4.86078 1.13356,4.91548 0.9159,4.96065 0.69647,4.99619 0.47568,5.02202 0.25396,5.0381 0.0318,5.0444 -0.19051,5.0409 -0.4124,5.02761 -0.63351,5.00456 -0.85337,4.97179 -1.07158,4.92937 -1.28771,4.87737 -1.50133,4.8159 -1.71205,4.74509 -1.91944,4.66505 -2.1231,4.57596 -2.32263,4.47798 -2.51767,4.37131 -2.7078,4.25614 -2.89268,4.13272 -3.07194,4.00126 -3.24525,3.86204 -3.41224,3.71532 -3.5726,3.56138 -3.72604,3.40053 -3.87224,3.23306 -4.01091,3.05934 -4.1418,2.87966 -4.26465,2.69439 -4.37921,2.50389 -4.48527,2.30853 -4.58262,2.10868 -4.67107,1.90474 -4.75046,1.6971 -4.8206,1.48617 -4.8814,1.27235 -4.93272,1.05606 -4.97445,0.83772 -5.00653,0.61774 -5.028888,0.39658 -5.041473,0.17464 -1.441364,0.009 0,0"
           style="fill:none;stroke:#000000;stroke-opacity:0.25;stroke-width:1;stroke-linecap:square;stroke-linejoin:round;stroke-miterlimit:10;stroke-dasharray:none"
           id="path184" /></g></g><g
       id="g186"><g
         id="g188"
         clip-path="url(#clipPath190)"><path
           d="m 91.717105,135.36842 5.764235,0.10889 5.75601,0.32649 5.73958,0.54364 5.71494,0.76002 5.68217,0.9753 5.64129,1.1892 5.59234,1.40139 5.53544,1.6116 5.47062,1.81949 5.39801,2.0248 5.31768,2.22721 5.22978,2.42645 5.13442,2.62222 5.03172,2.81426 4.92184,3.00228 4.80496,3.18601 4.6812,3.3652 4.55078,3.53959 4.41385,3.70893 4.27064,3.87298 4.12132,4.03149 3.96613,4.18427 3.80528,4.33106 3.639,4.47168 3.46753,4.60592 3.29111,4.73359 3.11,4.8545 2.92444,4.9685 2.73471,5.07539 2.54109,5.17504 2.34384,5.26733 2.14325,5.35208 1.93958,5.4292 1.73317,5.49858 1.52427,5.56011 1.31321,5.61372 1.10026,5.6593 0.88575,5.69681 0.66998,5.72621 0.45324,5.74742 0.23586,5.76043 0.0181,5.76524 -0.19959,5.7618 -0.41705,5.75016 -0.63391,5.73031 -0.84987,5.70228 -1.06461,5.66612 -1.27784,5.62186 -1.48923,5.5696 -1.69852,5.50939 -1.90537,5.4413 -2.1095,5.36547 -2.31063,5.28198 -2.50846,5.19094 -2.70271,5.09251 -2.89311,4.9868 -3.07937,4.87399 -3.26124,4.75421 -3.43846,4.62766 -3.61077,4.49451 -3.77794,4.35493 -3.93971,4.20915 -4.09586,4.05736 -4.24617,3.89979 -4.39042,3.73664 -4.5284,3.56817 -4.65992,3.39461 -4.78481,3.2162 -4.90284,3.0332 -5.01391,2.84588 -5.1178,2.6545 -5.2144,2.45933 -5.30356,2.26065 -5.38515,2.05874 -5.45906,1.8539 -5.52518,1.64641 -5.58341,1.43657 -5.63368,1.22469 -5.67592,1.01106 -5.71005,0.79598 -5.73604,0.57976 -5.753841,0.36273 -5.763436,0.14517 -0.960928,0.003 0,0"
           style="fill:none;stroke:#000000;stroke-opacity:0.25;stroke-width:1;stroke-linecap:square;stroke-linejoin:round;stroke-miterlimit:10;stroke-dasharray:none"
           id="path194" /></g></g><g
       id="g196"><g
         id="g198"
         clip-path="url(#clipPath200)"><path
           d="m 91.717105,116.28947 6.484765,0.1225 6.47551,0.36731 6.45702,0.6116 6.42932,0.85501 6.39244,1.09722 6.34644,1.33784 6.2914,1.57657 6.22736,1.81304 6.15445,2.04693 6.07275,2.2779 5.9824,2.50562 5.8835,2.72975 5.77622,2.95 5.66068,3.16604 5.53708,3.37757 5.40558,3.58426 5.26635,3.78585 5.11963,3.98204 4.96558,4.17255 4.80447,4.35709 4.63649,4.53544 4.46189,4.70729 4.28094,4.87245 4.09388,5.03064 3.90097,5.18166 3.7025,5.32529 3.49874,5.46132 3.29,5.58955 3.07655,5.70981 2.85873,5.82193 2.63682,5.92574 2.41115,6.02109 2.18203,6.10785 1.94982,6.18591 1.7148,6.25512 1.47736,6.31543 1.23779,6.36671 0.99647,6.40892 0.75372,6.44198 0.5099,6.46585 0.26535,6.48049 0.0204,6.48589 -0.22454,6.48203 -0.46918,6.46893 -0.71315,6.44659 -0.9561,6.41507 -1.19768,6.37438 -1.43757,6.3246 -1.67539,6.2658 -1.91083,6.19806 -2.14354,6.12147 -2.3732,6.03615 -2.59945,5.94222 -2.82202,5.83981 -3.04055,5.72907 -3.25474,5.61015 -3.46429,5.48324 -3.6689,5.34849 -3.86827,5.20612 -4.06212,5.05632 -4.25018,4.8993 -4.43217,4.73529 -4.60785,4.56453 -4.77694,4.38726 -4.93922,4.20373 -5.09445,4.01419 -5.24241,3.81893 -5.3829,3.61823 -5.51571,3.41235 -5.64064,3.20162 -5.75753,2.98631 -5.8662,2.76674 -5.9665,2.54323 -6.0583,2.31608 -6.14144,2.08564 -6.21582,1.85221 -6.28134,1.61615 -6.3379,1.37777 -6.3854,1.13744 -6.42381,0.89548 -6.45304,0.65224 -6.473076,0.40806 -6.483865,0.16332 -1.081044,0.003 0,0"
           style="fill:none;stroke:#000000;stroke-opacity:1;stroke-width:2;stroke-linecap:square;stroke-linejoin:round;stroke-miterlimit:10;stroke-dasharray:none"
           id="path204" /></g></g><g
       id="g206"><g
         id="g208"
         clip-path="url(#clipPath210)"><path
           d="m 91.717105,288 0,-171.71053 0,0"
           style="fill:none;stroke:#000000;stroke-opacity:1;stroke-width:2;stroke-linecap:square;stroke-linejoin:round;stroke-miterlimit:10;stroke-dasharray:none"
           id="path214" /></g></g><g
       id="g216"><g
         id="g218"
         clip-path="url(#clipPath220)"><path
           d="m 91.717105,288 85.855265,-148.70568 0,0"
           style="fill:none;stroke:#000000;stroke-opacity:0.25;stroke-width:1;stroke-linecap:square;stroke-linejoin:round;stroke-miterlimit:10;stroke-dasharray:none"
           id="path224" /></g></g><g
       id="g226"><g
         id="g228"
         clip-path="url(#clipPath230)"><path
           d="m 91.717105,288 148.705675,-85.85526 0,0"
           style="fill:none;stroke:#000000;stroke-opacity:0.25;stroke-width:1;stroke-linecap:square;stroke-linejoin:round;stroke-miterlimit:10;stroke-dasharray:none"
           id="path234" /></g></g><g
       id="g236"><g
         id="g238"
         clip-path="url(#clipPath240)"><path
           d="m 91.717105,288 171.710525,0 0,0"
           style="fill:none;stroke:#000000;stroke-opacity:0.25;stroke-width:1;stroke-linecap:square;stroke-linejoin:round;stroke-miterlimit:10;stroke-dasharray:none"
           id="path244" /></g></g><g
       id="g246"><g
         id="g248"
         clip-path="url(#clipPath250)"><path
           d="m 91.717105,288 148.705675,85.85526 0,0"
           style="fill:none;stroke:#000000;stroke-opacity:0.25;stroke-width:1;stroke-linecap:square;stroke-linejoin:round;stroke-miterlimit:10;stroke-dasharray:none"
           id="path254" /></g></g><g
       id="g256"><g
         id="g258"
         clip-path="url(#clipPath260)"><path
           d="m 91.717105,288 85.855265,148.70568 0,0"
           style="fill:none;stroke:#000000;stroke-opacity:0.25;stroke-width:1;stroke-linecap:square;stroke-linejoin:round;stroke-miterlimit:10;stroke-dasharray:none"
           id="path264" /></g></g><g
       id="g266"><g
         id="g268"
         clip-path="url(#clipPath270)"><path
           d="m 91.717105,288 0,171.71053 0,0"
           style="fill:none;stroke:#000000;stroke-opacity:1;stroke-width:2;stroke-linecap:square;stroke-linejoin:round;stroke-miterlimit:10;stroke-dasharray:none"
           id="path274" /></g></g><g
       id="g562"><g
         id="g564"
         clip-path="url(#clipPath566)"><path
           d="m 321.24985,222.32985 3.3679,2.65024 3.13787,2.74904 2.91971,2.83542 2.92916,3.1569 2.69764,3.23423 2.47678,3.30161 2.43109,3.62106 2.19623,3.67989 1.9704,3.73058 1.75242,3.7741 1.64339,4.0848 1.40804,4.12053 1.17864,4.14996 0.95412,4.17367 0.73347,4.19207 0.51577,4.2055 0.30012,4.21418 0.0856,4.21825 -0.12848,4.2178 -0.34313,4.21281 -0.55912,4.2032 -0.77734,4.1888 -0.99868,4.16937 -1.22409,4.14455 -1.4546,4.1139 -1.69127,4.07684 -1.79852,3.76534 -2.0181,3.72034 -2.24575,3.66801 -2.48273,3.60729 -2.52686,3.28687 -2.75008,3.21732 -2.98424,3.13748 -2.97321,2.81488 -3.1942,2.72558 -2.54799,1.97789 0,0"
           style="fill:none;stroke:#000000;stroke-opacity:0.25;stroke-width:1;stroke-linecap:square;stroke-linejoin:round;stroke-miterlimit:10;stroke-dasharray:none"
           id="path570" /></g></g><g
       id="g572"><g
         id="g574"
         clip-path="url(#clipPath576)"><path
           d="m 369.32503,172.92398 4.25106,8.16115 3.64759,7.47058 3.33864,7.32233 3.04529,7.19563 2.76579,7.08711 2.49847,6.9941 2.24189,6.91445 1.99466,6.84638 1.75555,6.7885 1.52342,6.73962 1.29723,6.69885 1.076,6.66542 0.85881,6.63875 0.64483,6.61837 0.4332,6.60396 0.22317,6.59525 0.0139,6.59213 -0.19523,6.59451 -0.40513,6.60247 -0.61649,6.61612 -0.83011,6.63568 -1.04683,6.66148 -1.26746,6.69398 -1.49294,6.73374 -1.72422,6.78148 -1.96234,6.8381 -2.20841,6.90474 -2.46368,6.98275 -2.72947,7.07387 -3.00726,7.18017 -3.29867,7.30427 -3.60543,7.44943 -3.92944,7.61973 -0.82642,1.54694 0,0"
           style="fill:none;stroke:#000000;stroke-opacity:0.25;stroke-width:1;stroke-linecap:square;stroke-linejoin:round;stroke-miterlimit:10;stroke-dasharray:none"
           id="path580" /></g></g><g
       id="g582"><g
         id="g584"
         clip-path="url(#clipPath586)"><path
           d="m 427.57999,145.11897 4.13843,15.82687 3.30548,13.48349 2.84781,12.54307 2.42633,11.69333 2.04351,10.91514 1.78731,10.7559 1.45655,10.06665 1.22641,9.96766 0.99668,9.88762 0.76746,9.82537 0.53873,9.77997 0.31041,9.75079 0.0823,9.73736 -0.14568,9.73952 -0.3738,9.75729 -0.60222,9.79094 -0.83108,9.84093 -1.06044,9.90803 -1.29031,9.9932 -1.52052,10.09771 -1.8548,10.79516 -2.11075,10.96171 -2.49648,11.75109 -2.92015,12.61445 -3.37872,13.57153 -3.3425,12.70728 0,0"
           style="fill:none;stroke:#000000;stroke-opacity:0.25;stroke-width:1;stroke-linecap:square;stroke-linejoin:round;stroke-miterlimit:10;stroke-dasharray:none"
           id="path590" /></g></g><g
       id="g592"><g
         id="g594"
         clip-path="url(#clipPath596)"><path
           d="m 493.70471,129.19661 3.61153,27.69983 2.433,20.35487 1.86013,17.38253 1.48168,15.85489 1.18867,15.04196 0.91379,14.28359 0.68592,14.18515 0.45299,14.11601 0.21241,13.46419 -0.005,13.4523 -0.22226,13.46532 -0.43819,13.50332 -0.68592,14.18515 -0.91379,14.28359 -1.18867,15.04196 -1.48168,15.85489 -1.78672,16.73335 -2.25841,19.01365 -3.0355,23.52614 -0.82403,6.16409 0,0"
           style="fill:none;stroke:#000000;stroke-opacity:0.25;stroke-width:1;stroke-linecap:square;stroke-linejoin:round;stroke-miterlimit:10;stroke-dasharray:none"
           id="path600" /></g></g><g
       id="g602"><g
         id="g604"
         clip-path="url(#clipPath606)"><path
           d="m 562.19394,120.92868 2.76045,42.75359 1.51845,27.01775 1.05985,22.68514 0.77062,21.16748 0.51654,20.38305 0.27235,19.65347 0.0447,18.97066 -0.17109,18.98178 -0.4003,19.68829 -0.64271,20.44359 -0.89086,21.25547 -1.20968,23.48045 -1.67245,27.88848 -1.95589,29.77344 0,0"
           style="fill:none;stroke:#000000;stroke-opacity:0.25;stroke-width:1;stroke-linecap:square;stroke-linejoin:round;stroke-miterlimit:10;stroke-dasharray:none"
           id="path610" /></g></g><g
       id="g612"><g
         id="g614"
         clip-path="url(#clipPath616)"><path
           d="m 602.58871,118.1476 2.21875,52.01501 1.11072,31.389 0.73441,27.05308 0.45387,24.88229 0.2153,24.13271 -0.0126,23.43993 -0.23093,23.46715 -0.47231,24.89122 -0.73057,26.38837 -1.04122,29.34493 -1.56148,37.32334 -0.68397,15.37777 0,0"
           style="fill:none;stroke:#000000;stroke-opacity:0.25;stroke-width:1;stroke-linecap:square;stroke-linejoin:round;stroke-miterlimit:10;stroke-dasharray:none"
           id="path620" /></g></g><g
       id="g622"><g
         id="g624"
         clip-path="url(#clipPath626)"><path
           d="m 631.3051,116.75424 1.87428,59.11405 0.86286,34.31092 0.53559,29.98926 0.27879,27.83495 0.0523,27.11281 -0.16732,27.12788 -0.4027,28.56258 -0.66362,30.76134 -1.00768,35.83762 -1.36255,41.84011 0,0"
           style="fill:none;stroke:#000000;stroke-opacity:0.25;stroke-width:1;stroke-linecap:square;stroke-linejoin:round;stroke-miterlimit:10;stroke-dasharray:none"
           id="path630" /></g></g><g
       id="g632"><g
         id="g634"
         clip-path="url(#clipPath636)"><path
           d="m 643.06979,116.28947 1.73914,61.95534 0.77917,35.75541 0.4663,31.43856 0.21566,29.2914 -0.008,28.58154 -0.23112,29.29582 -0.46843,30.76266 -0.7538,34.38499 -1.19941,43.74338 -0.53973,18.21196 0,0"
           style="fill:none;stroke:#000000;stroke-opacity:1;stroke-width:2;stroke-linecap:square;stroke-linejoin:round;stroke-miterlimit:10;stroke-dasharray:none"
           id="path640" /></g></g><g
       id="g642"><g
         id="g644"
         clip-path="url(#clipPath646)"><path
           d="m 302.86184,288 0.18042,-6.70636 0.53736,-6.65835 0.88298,-6.56434 1.21055,-6.42821 1.51455,-6.25523 1.79092,-6.05166 2.03702,-5.82419 2.25172,-5.57951 2.43507,-5.32387 2.5882,-5.06288 2.71293,-4.80133 2.81159,-4.54316 2.8868,-4.29141 2.94123,-4.04837 2.97756,-3.81563 2.99827,-3.59423 3.00574,-3.38475 3.00205,-3.18734 5.95749,-5.8303 5.85137,-5.18046 5.70922,-4.6146 5.54534,-4.12321 5.36991,-3.69673 5.18989,-3.32618 5.01004,-3.00358 7.18562,-3.98852 6.80746,-3.46756 6.45269,-3.03686 6.12284,-2.67795 7.6932,-3.11 7.20565,-2.67946 8.39693,-2.86555 7.79802,-2.43707 8.66865,-2.48053 9.29407,-2.41816 9.70424,-2.28545 9.93522,-2.11269 10.97408,-2.09501 11.61764,-1.97528 11.94391,-1.80077 12.6957,-1.68903 13.62464,-1.58667 14.5425,-1.46931 15.75329,-1.36667 17.29292,-1.27096 18.71929,-1.1486 20.76109,-1.04554 19.62008,-0.80701 0,0"
           style="fill:none;stroke:#000000;stroke-opacity:1;stroke-width:2;stroke-linecap:square;stroke-linejoin:round;stroke-miterlimit:10;stroke-dasharray:none"
           id="path650" /></g></g><g
       id="g652"><g
         id="g654"
         clip-path="url(#clipPath656)"><path
           d="m 302.86184,288 3.0896,-5.64038 3.22935,-5.29475 3.33231,-4.95829 3.40325,-4.63516 3.44687,-4.32814 3.46757,-4.03888 3.46936,-3.76813 3.45575,-3.51594 3.42979,-3.28196 3.39409,-3.06543 6.65263,-5.54647 6.44084,-4.86539 6.20841,-4.28703 5.96848,-3.79538 5.72937,-3.37629 5.49623,-3.01772 7.82734,-3.96233 7.3595,-3.40391 6.93004,-2.95058 6.53798,-2.57876 8.16733,-2.96827 7.60635,-2.53508 8.81657,-2.689 9.70414,-2.68129 8.88906,-2.22633 9.4991,-2.16115 9.88885,-2.0346 11.16083,-2.06055 11.96343,-1.9622 12.3858,-1.79452 13.25431,-1.68626 14.28736,-1.58159 15.27595,-1.45701 16.55019,-1.34524 17.75463,-1.21496 19.64171,-1.11456 21.68278,-1.00064 24.25813,-0.88991 2.19053,-0.0702 0,0"
           style="fill:none;stroke:#000000;stroke-opacity:0.25;stroke-width:1;stroke-linecap:square;stroke-linejoin:round;stroke-miterlimit:10;stroke-dasharray:none"
           id="path660" /></g></g><g
       id="g662"><g
         id="g664"
         clip-path="url(#clipPath666)"><path
           d="m 302.86184,288 5.11685,-3.1902 4.93803,-2.88499 4.76342,-2.61823 9.0273,-4.5628 8.40855,-3.83248 7.8487,-3.2573 7.34526,-2.7981 6.89334,-2.42672 9.59178,-3.08706 8.81005,-2.56813 8.13757,-2.16776 9.95681,-2.41202 11.24323,-2.4391 10.14085,-1.96951 10.98018,-1.91345 11.47718,-1.78337 13.07698,-1.79373 13.98398,-1.67261 14.36241,-1.48883 15.25876,-1.36266 17.05075,-1.29474 18.37329,-1.16814 20.20499,-1.05902 22.64931,-0.95825 25.30004,-0.84244 29.03864,-0.73739 19.03343,-0.37927 0,0"
           style="fill:none;stroke:#000000;stroke-opacity:0.25;stroke-width:1;stroke-linecap:square;stroke-linejoin:round;stroke-miterlimit:10;stroke-dasharray:none"
           id="path670" /></g></g><g
       id="g672"><g
         id="g674"
         clip-path="url(#clipPath676)"><path
           d="m 302.86184,288 343.43172,0 0,0"
           style="fill:none;stroke:#000000;stroke-opacity:0.25;stroke-width:1;stroke-linecap:square;stroke-linejoin:round;stroke-miterlimit:10;stroke-dasharray:none"
           id="path680" /></g></g><g
       id="g682"><g
         id="g684"
         clip-path="url(#clipPath686)"><path
           d="m 302.86184,288 5.11685,3.1902 4.93803,2.88499 4.76342,2.61823 9.0273,4.5628 8.40855,3.83248 7.8487,3.2573 7.34526,2.7981 6.89334,2.42672 9.59178,3.08706 8.81005,2.56813 8.13757,2.16776 9.95681,2.41202 11.24323,2.4391 10.14085,1.96951 10.98018,1.91345 11.47718,1.78337 13.07698,1.79373 13.98398,1.67261 14.36241,1.48883 15.25876,1.36266 17.05075,1.29474 18.37329,1.16814 20.20499,1.05902 22.64931,0.95825 25.30004,0.84244 29.03864,0.73739 19.03343,0.37927 0,0"
           style="fill:none;stroke:#000000;stroke-opacity:0.25;stroke-width:1;stroke-linecap:square;stroke-linejoin:round;stroke-miterlimit:10;stroke-dasharray:none"
           id="path690" /></g></g><g
       id="g692"><g
         id="g694"
         clip-path="url(#clipPath696)"><path
           d="m 302.86184,288 3.0896,5.64038 3.22935,5.29475 3.33231,4.95829 3.40325,4.63516 3.44687,4.32814 3.46757,4.03888 3.46936,3.76813 3.45575,3.51594 3.42979,3.28196 3.39409,3.06543 6.65263,5.54647 6.44084,4.86539 6.20841,4.28703 5.96848,3.79538 5.72937,3.37629 5.49623,3.01772 7.82734,3.96233 7.3595,3.40391 6.93004,2.95058 6.53798,2.57876 8.16733,2.96827 7.60635,2.53508 8.81657,2.689 9.70414,2.68129 8.88906,2.22633 9.4991,2.16115 9.88885,2.0346 11.16083,2.06055 11.96343,1.9622 12.3858,1.79452 13.25431,1.68626 14.28736,1.58159 15.27595,1.45701 16.55019,1.34524 17.75463,1.21496 19.64171,1.11456 21.68278,1.00064 24.25813,0.88991 2.19053,0.0702 0,0"
           style="fill:none;stroke:#000000;stroke-opacity:0.25;stroke-width:1;stroke-linecap:square;stroke-linejoin:round;stroke-miterlimit:10;stroke-dasharray:none"
           id="path700" /></g></g><g
       id="g702"><g
         id="g704"
         clip-path="url(#clipPath706)"><path
           d="m 302.86184,288 0.18042,6.70636 0.53736,6.65835 0.88298,6.56434 1.21055,6.42821 1.51455,6.25523 1.79092,6.05166 2.03702,5.82419 2.25172,5.57951 2.43507,5.32387 2.5882,5.06288 2.71293,4.80133 2.81159,4.54316 2.8868,4.29141 2.94123,4.04837 2.97756,3.81563 2.99827,3.59423 3.00574,3.38475 3.00205,3.18734 5.95749,5.8303 5.85137,5.18046 5.70922,4.6146 5.54534,4.12321 5.36991,3.69673 5.18989,3.32618 5.01004,3.00358 7.18562,3.98852 6.80746,3.46756 6.45269,3.03686 6.12284,2.67795 7.6932,3.11 7.20565,2.67946 8.39693,2.86555 7.79802,2.43707 8.66865,2.48053 9.29407,2.41816 9.70424,2.28545 9.93522,2.11269 10.97408,2.09501 11.61764,1.97528 11.94391,1.80077 12.6957,1.68903 13.62464,1.58667 14.5425,1.46931 15.75329,1.36667 17.29292,1.27096 18.71929,1.1486 20.76109,1.04554 19.62008,0.80701 0,0"
           style="fill:none;stroke:#000000;stroke-opacity:1;stroke-width:2;stroke-linecap:square;stroke-linejoin:round;stroke-miterlimit:10;stroke-dasharray:none"
           id="path710" /></g></g></g></svg>